<?xml version="1.0" encoding="UTF-8" standalone="no"?>
<!-- Created with Inkscape (http://www.inkscape.org/) -->

<svg
   xmlns:dc="http://purl.org/dc/elements/1.1/"
   xmlns:cc="http://creativecommons.org/ns#"
   xmlns:rdf="http://www.w3.org/1999/02/22-rdf-syntax-ns#"
   xmlns:svg="http://www.w3.org/2000/svg"
   xmlns="http://www.w3.org/2000/svg"
   xmlns:sodipodi="http://sodipodi.sourceforge.net/DTD/sodipodi-0.dtd"
   xmlns:inkscape="http://www.inkscape.org/namespaces/inkscape"
   width="744.09448819"
   height="1052.3622047"
   id="svg2"
   version="1.1"
   inkscape:version="0.47 r22583"
   sodipodi:docname="New document 1">
  <defs
     id="defs4">
    <inkscape:perspective
       sodipodi:type="inkscape:persp3d"
       inkscape:vp_x="0 : 526.18109 : 1"
       inkscape:vp_y="0 : 1000 : 0"
       inkscape:vp_z="744.09448 : 526.18109 : 1"
       inkscape:persp3d-origin="372.04724 : 350.78739 : 1"
       id="perspective10" />
    <inkscape:perspective
       id="perspective2902"
       inkscape:persp3d-origin="0.5 : 0.33333333 : 1"
       inkscape:vp_z="1 : 0.5 : 1"
       inkscape:vp_y="0 : 1000 : 0"
       inkscape:vp_x="0 : 0.5 : 1"
       sodipodi:type="inkscape:persp3d" />
  </defs>
  <sodipodi:namedview
     id="base"
     pagecolor="#ffffff"
     bordercolor="#666666"
     borderopacity="1.0"
     inkscape:pageopacity="0.0"
     inkscape:pageshadow="2"
     inkscape:zoom="1.2432572"
     inkscape:cx="241.34161"
     inkscape:cy="749.95699"
     inkscape:document-units="px"
     inkscape:current-layer="layer1"
     showgrid="false"
     inkscape:window-width="1680"
     inkscape:window-height="1002"
     inkscape:window-x="0"
     inkscape:window-y="0"
     inkscape:window-maximized="1" />
  <metadata
     id="metadata7">
    <rdf:RDF>
      <cc:Work
         rdf:about="">
        <dc:format>image/svg+xml</dc:format>
        <dc:type
           rdf:resource="http://purl.org/dc/dcmitype/StillImage" />
        <dc:title></dc:title>
      </cc:Work>
    </rdf:RDF>
  </metadata>
  <g
     inkscape:label="Layer 1"
     inkscape:groupmode="layer"
     id="layer1">
    <g
       id="g3697">
      <path
         style="fill:#545454;fill-opacity:1"
         d="m 450.54032,424.32774 c -5.775,-1.32723 -16.125,-4.04749 -23,-6.04501 -41.92053,-12.17996 -54.1274,-15.03164 -70.91034,-16.56557 -16.96225,-1.55033 -40.05508,1.40199 -51.36711,6.56706 -6.89583,3.14863 -11.33149,4.69697 -20.1081,7.01907 -12.33978,3.26483 -18.37939,4.01727 -20.18921,2.51526 -2.11818,-1.75794 0.0659,-3.93765 3.9472,-3.93925 5.37071,-0.002 22.75569,-4.68303 34.69053,-9.34022 14.58447,-5.69113 17.41199,-6.42112 29.79234,-7.69158 19.7509,-2.02683 39.77465,1.03926 77.86733,11.92325 37.79768,10.7997 47.8801,13.10984 57.21697,13.10984 4.43508,0 7.19922,0.46236 7.91415,1.32379 3.55354,4.28176 -9.62039,4.85417 -25.85376,1.12336 z m 29.10209,0.17586 c -1.46625,-1.76673 0.17912,-3.11137 4.89791,-4.00269 13.19951,-2.49322 20.9898,-8.37672 27.53134,-20.79265 3.43792,-6.52521 3.90739,-8.28588 4.287,-16.07767 0.46817,-9.60947 1.68801,-11.40061 2.72415,-4 0.97583,6.96981 0.97654,7.11127 0.0748,15.04422 -0.71759,6.31282 -1.34519,7.94706 -4.66464,12.14648 -5.59929,7.08363 -14.38899,13.41745 -21.95264,15.81896 -9.8286,3.12065 -11.63755,3.38199 -12.89791,1.86335 z M 244.60938,414.31364 c -7.06704,-3.06634 -16.84022,-13.22038 -14.25961,-14.81529 0.7384,-0.45635 15.34908,9.19542 19.47702,12.86645 1.83904,1.63549 1.51182,3.54591 -0.59549,3.47665 -0.65504,-0.0215 -2.7349,-0.70904 -4.62192,-1.52781 z M 474.76889,411.656 c -1.69497,-2.04232 0.002,-3.77937 4.35235,-4.45457 4.9945,-0.77523 12.24487,-4.39989 15.25259,-7.6252 4.9799,-5.34017 4.61277,-16.01858 -0.808,-23.50173 -2.15802,-2.97906 -3.90918,-4.17899 -7.37082,-5.05064 -9.23105,-2.32441 -15.31419,-0.9342 -19.56639,4.47161 -2.85012,3.62333 -2.80123,9.64302 0.10026,12.34616 3.27498,3.05111 11.92141,2.7936 19.2775,-0.57413 6.5424,-2.99521 8.77737,-2.23739 5.53986,1.87844 -2.26713,2.88219 -11.43298,6.73465 -16.0232,6.73465 -4.42474,0 -11.14566,-2.87832 -14.17911,-6.07239 -9.37725,-9.87377 1.76205,-24.89738 18.47851,-24.92203 8.36209,-0.0123 15.96951,5.70715 20.2359,15.21393 3.17755,7.08052 3.39002,9.46565 1.45792,16.36644 -1.69208,6.04349 -7.85234,12.48921 -13.47594,14.10039 -7.50136,2.14916 -12.07982,2.52487 -13.27143,1.08907 z m -214.72857,-4.123 c -6.79015,-2.23441 -10.0631,-4.37261 -14.86007,-9.708 -6.82876,-7.59522 -10.22069,-20.22535 -7.30546,-27.20247 2.29101,-5.48317 10.14429,-13.37746 15.24633,-15.32595 4.96791,-1.89726 13.13518,-1.49358 14.50124,0.71675 1.32322,2.14102 -0.57427,3.15664 -6.37779,3.41369 -6.78332,0.30045 -11.04317,2.47994 -14.13397,7.23146 -8.78722,13.50866 -3.4551,28.27835 12.38136,34.29573 5.62179,2.13612 18.0283,2.61531 24.09272,0.93058 4.89958,-1.36114 9.2867,-6.24397 13.02833,-14.50045 2.80858,-6.19755 3.10252,-7.68164 2.57479,-13 -1.40348,-14.14405 -5.78236,-21.17593 -16.71254,-26.83806 -7.34731,-3.80611 -7.47565,-3.83186 -17.44609,-3.5 -8.95005,0.29789 -10.76487,0.6894 -16.65828,3.59366 -13.04646,6.42926 -20.7869,17.92734 -21.55622,32.0208 -0.50769,9.30066 -0.78898,10.34333 -2.60265,9.64736 -0.87118,-0.3343 -1.68385,-2.88957 -2.14138,-6.73314 -1.71692,-14.42315 -0.41007,-18.29336 10.87101,-32.19437 6.5534,-8.07536 20.94781,-23.61649 22.78423,-24.59931 3.29446,-1.76314 2.66701,0.84043 -1.81135,7.5161 -2.49329,3.71662 -4.35456,6.93619 -4.13616,7.15459 0.2184,0.2184 3.74169,-0.31369 7.82952,-1.18243 9.1793,-1.95078 18.87016,-1.33171 25.7965,1.64792 7.12829,3.06651 14.29786,10.9593 17.20995,18.94598 l 2.3199,6.36256 2.76679,-11.9227 c 3.32608,-14.33286 9.50035,-36.67106 11.38012,-41.17271 0.74641,-1.7875 1.8442,-3.25 2.43953,-3.25 2.94086,0 2.49761,2.35338 -8.28724,44 -6.34244,24.49183 -7.78226,32.66147 -5.59381,31.73959 20.51863,-8.64339 29.61569,-10.74852 46.37446,-10.73139 22.44541,0.023 43.94474,5.16341 80.9693,19.35968 6.56869,2.51862 12.0871,4.43528 12.26313,4.25925 0.17603,-0.17603 -0.33007,-1.87602 -1.12467,-3.77775 -0.85735,-2.05194 -1.68922,-8.72098 -2.04611,-16.40354 -1.78155,-38.35025 -3.60088,-51.49971 -8.63144,-62.38482 -3.85668,-8.3451 -8.43828,-12.58026 -19.29856,-17.83932 -11.00012,-5.32677 -19.87016,-7.82035 -32.93012,-9.25743 -21.49172,-2.36489 -40.08573,2.00266 -52.87344,12.41945 -3.11683,2.53896 -6.14732,4.61628 -6.73441,4.61628 -2.80156,0 -0.0703,-8.30642 8.05578,-24.5 3.72614,-7.42537 5.06429,-11.25382 5.19744,-14.86989 0.17398,-4.72466 0.0161,-5.01377 -5.29267,-9.69467 -3.00959,-2.65363 -5.16152,-5.13525 -4.78206,-5.51471 1.20028,-1.20028 6.33477,1.56555 10.13944,5.46188 3.25685,3.33532 3.68389,4.36759 3.80083,9.18744 0.0725,2.98647 -0.20923,6.48687 -0.62596,7.77867 -0.63956,1.98253 -0.46946,2.2598 1.09103,1.77836 19.22251,-5.93045 24.73671,-6.94276 37.84872,-6.94832 8.11605,-0.003 13.22851,0.57339 19.5,2.20018 8.64766,2.24315 20.87242,7.4699 25.98366,11.10942 1.55379,1.1064 3.05356,2.01164 3.33281,2.01164 0.27926,0 0.80327,-1.9125 1.16447,-4.25 1.98232,-12.82836 8.5262,-22.37215 16.95874,-24.73311 8.33237,-2.33292 17.80105,2.73173 26.00732,13.91091 2.44397,3.32935 5.21813,10.0537 9.5436,23.13297 7.00616,21.18507 12.9243,33.8666 23.07198,49.43923 13.16174,20.19799 18.45026,35.26765 8.30791,23.67343 -2.50191,-2.86007 -6.57429,-6.59361 -9.04973,-8.29675 -4.36677,-3.00442 -4.65444,-4.31115 -1.10725,-5.02962 1.3987,-0.2833 0.72195,-1.7868 -3.68367,-8.18375 -10.1719,-14.76958 -18.76113,-34.15516 -26.48795,-59.78234 -2.21896,-7.35953 -4.86043,-14.50597 -5.86993,-15.88097 -2.67977,-3.65001 -11.01329,-7.94922 -15.4618,-7.97664 -6.32633,-0.039 -11.16089,3.15463 -14.21008,9.38694 -3.59773,7.3535 -3.13127,14.42011 2.28326,34.5897 5.10918,19.03216 7.83625,35.41881 8.77825,52.74754 0.3946,7.25892 1.11148,12.95451 1.59308,12.65687 0.4816,-0.29765 1.47615,-1.9784 2.2101,-3.73501 2.2187,-5.31009 11.71671,-13.1756 18.7979,-15.56696 7.31459,-2.47017 14.83733,-2.82522 14.83733,-0.70027 0,1.51093 -4.9243,3.59783 -8.4895,3.59783 -3.92931,0 -14.7743,6.22947 -19.53566,11.22147 -5.37868,5.63922 -6.97785,10.71109 -6.96972,22.10482 0.006,8.57219 2.14742,12.85075 8.85723,17.69776 3.21561,2.32289 4.0684,3.4452 3.24415,4.26945 -1.57129,1.57129 -7.07584,-0.0453 -28.08938,-8.24945 -38.99312,-15.22375 -71.90027,-21.40558 -96.44555,-18.11796 -8.68962,1.1639 -25.02185,5.78882 -31.07157,8.79878 -1.65,0.82094 -4.8,3.19424 -7,5.27401 -2.2,2.07978 -7.77927,5.73241 -12.39838,8.11696 -7.05008,3.63951 -9.45823,4.37707 -15,4.59419 -3.63089,0.14225 -8.40162,-0.33368 -10.60162,-1.05762 z m 171.5,-104.6149 c 0,-0.52937 -0.89891,-3.36503 -1.99757,-6.30148 -3.73596,-9.98523 -11.70352,-15.35568 -27.50243,-18.5377 -31.57999,-6.36046 -53.68969,-4.5448 -65.4181,5.37218 -3.24949,2.7476 -9.0819,10.87501 -9.0819,12.65553 0,0.45897 2.96533,-1.19592 6.58963,-3.67754 8.06797,-5.52427 22.55441,-10.39752 33.30482,-11.20378 15.64246,-1.17316 38.29888,5.29071 52.91387,15.0963 3.92559,2.63378 7.65475,5.41202 8.28701,6.17384 1.32657,1.59843 2.90467,1.82805 2.90467,0.42265 z m -160.62751,82.49079 c -0.77061,-2.00817 1.07654,-3.49052 4.37751,-3.51299 2.06612,-0.0141 3.47616,-1.10567 7.05995,-5.4656 1.64813,-2.00507 3.19005,-1.1243 3.19005,1.82222 0,3.39858 -5.08742,7.69598 -9.87022,8.33749 -3.28163,0.44016 -4.22503,0.20594 -4.75729,-1.18112 z m 215.81152,-33.80658 c -0.85066,-1.02498 -0.84065,-1.66508 0.0398,-2.54551 1.58854,-1.58854 2.09562,-1.50107 4.77621,0.82379 1.73678,1.5063 1.91816,2 0.7348,2 -0.86418,0 -2.21093,0.24548 -2.9928,0.54551 -0.78186,0.30003 -1.93296,-0.0707 -2.55799,-0.82379 z M 264.32829,317.33523 c -0.39272,-0.39273 4.55797,-10.42657 18.72682,-37.95464 6.94775,-13.49851 17.74022,-25.57363 26.37565,-29.5103 3.35001,-1.52718 4.71554,-1.73167 5.76233,-0.86291 1.56796,1.30129 0.0905,3.87321 -2.22508,3.87321 -4.96505,0 -18.90834,14.66675 -24.82578,26.11389 -0.39409,0.76236 -2.15324,3.95266 -3.90922,7.08955 -1.75598,3.13689 -6.04322,11.12891 -9.5272,17.76004 -5.62679,10.70961 -8.90165,14.96703 -10.37752,13.49116 z"
         id="path2918" />
      <path
         style="fill:#3f3f3f;fill-opacity:1"
         d="m 458.54032,425.07448 c -4.09633,-0.53671 -27.18288,-6.09985 -31.5,-7.59052 -3.66638,-1.26598 -14.66788,-4.52531 -22,-6.51778 -3.45804,-0.9397 -7.36324,-2.01374 -20.26017,-5.57208 -5.0931,-1.40522 -10.4931,-2.73146 -12,-2.94721 -1.50691,-0.21574 -5.21483,-0.8637 -8.23983,-1.43991 -3.025,-0.5762 -7.075,-1.24121 -9,-1.4778 -1.925,-0.23658 0.55,-0.30236 5.5,-0.14617 10.67982,0.33698 23.51435,2.57596 36.75,6.41101 2.0625,0.59761 5.2125,1.51074 7,2.02917 20.34765,5.90147 39.40665,11.01299 46.75,12.53811 3.575,0.74248 7.76679,1.83806 9.3151,2.43463 1.5483,0.59656 5.5983,1.13686 9,1.20066 3.40169,0.0638 5.5099,0.26278 4.6849,0.44218 -2.53888,0.55208 -13.35754,0.98192 -16,0.63571 z m 27.5,-3.19389 c 0.33992,-0.55 1.24627,-1 2.01412,-1 0.76784,0 4.39666,-1.4333 8.06404,-3.1851 10.70437,-5.11319 18.86806,-17.28217 21.57759,-32.16404 l 1.30196,-7.15086 0.61461,4.44746 c 0.97724,7.07151 -1.21254,17.35163 -4.74711,22.28581 -4.82609,6.73711 -14.9231,14.39035 -21.37296,16.20009 -6.48425,1.81939 -8.3124,1.9584 -7.45225,0.56664 z m -219.76903,-5.65594 c 0.67703,-0.27392 2.02703,-0.29059 3,-0.0371 0.97297,0.25354 0.41903,0.47766 -1.23097,0.49804 -1.65,0.0204 -2.44606,-0.18706 -1.76903,-0.46099 z m 8.39939,-0.24233 c -1.54058,-0.97593 0.0681,-1.58262 13.74201,-5.18263 4.6048,-1.21233 13.09121,-4.15415 18.8587,-6.53738 11.15995,-4.61148 20.58268,-6.84304 24.61807,-5.83023 1.35552,0.34022 3.33076,0.15501 4.38943,-0.41158 1.13713,-0.60857 4.34681,-0.75908 7.84314,-0.36778 l 5.91829,0.66236 -5,0.82908 c -2.75,0.45599 -7.025,0.98471 -9.5,1.17492 -5.90453,0.45379 -22.42851,3.97724 -27.5,5.86389 -2.2,0.81843 -6.475,2.47405 -9.5,3.67916 -3.87639,1.54429 -22.35746,7.29834 -22.49297,7.00315 -0.004,-0.008 -0.62337,-0.40576 -1.37667,-0.88296 z m -30.70373,-2.99572 c -4.46539,-2.02812 -12.42663,-9.0819 -12.42663,-11.01019 0,-1.44064 0.19731,-1.33146 10.25,5.67168 4.2625,2.96944 7.75,5.81153 7.75,6.31574 0,1.29334 -0.93519,1.12937 -5.57337,-0.97723 z m 231.73814,-2.72306 c 0.24475,-1.2709 1.62057,-2.04702 4.50013,-2.5386 5.80067,-0.99025 11.4745,-4.10015 15.17978,-8.32023 2.87207,-3.27111 3.15486,-4.19653 3.1502,-10.30892 -0.004,-5.3816 -0.4944,-7.50958 -2.46879,-10.7152 -2.84034,-4.61155 -3.08013,-5.64984 -1.13223,-4.90236 0.76662,0.29418 2.79963,3.76756 4.51779,7.71862 l 3.12392,7.18374 -1.56003,5.961 c -2.74513,10.4893 -8.79651,15.57032 -20.31942,17.06112 -4.83546,0.6256 -5.31034,0.51722 -4.99135,-1.13917 z m -215.16477,-3.31808 c -7.53919,-2.30163 -15.60851,-8.72782 -19.06176,-15.18027 -1.82264,-3.40563 -3.91285,-11.8907 -3.92637,-15.93882 -0.0228,-6.81188 10.52135,-19.20478 17.44486,-20.50364 5.65775,-1.0614 10.98754,-0.14818 11.38582,1.95087 0.29089,1.53312 -0.0734,1.77988 -1.9162,1.29798 -3.51238,-0.91851 -11.66673,1.21967 -14.84248,3.89189 -6.82625,5.74391 -9.2576,17.71461 -5.37893,26.48299 4.08138,9.22664 12.86773,13.91531 27.79506,14.8323 l 10,0.6143 -3.20034,1.74377 c -3.36166,1.83166 -13.48357,2.27893 -18.29966,0.80863 z m 193,0.2393 c -0.825,-0.29586 -9.375,-3.60553 -19,-7.35481 -19.09538,-7.43833 -32.50281,-11.5745 -52.5,-16.19613 -11.55688,-2.67096 -14.88716,-3.01641 -30,-3.11194 -14.65131,-0.0926 -18.24342,0.2085 -26,2.17945 -4.95,1.2578 -9.9,2.6939 -11,3.19135 -1.1,0.49744 -3.85903,1.37617 -6.13117,1.95272 -2.65424,0.67351 -6.33225,3.01226 -10.2878,6.54174 -6.34501,5.66153 -9.58975,7.23454 -6.69051,3.24345 0.89896,-1.2375 2.81462,-4.725 4.25703,-7.75 1.44241,-3.025 3.01179,-6.28139 3.48751,-7.23643 1.18517,-2.37931 1.08454,-7.79709 -0.25073,-13.49922 -2.65903,-11.35509 -7.08138,-17.48622 -16.08879,-22.30546 -5.5171,-2.95182 -7.40839,-3.41754 -15.29554,-3.76643 -10.55017,-0.4667 -17.68888,1.54832 -26.17789,7.38914 -9.45056,6.50241 -16.32211,19.97746 -16.32211,32.00749 0,5.69787 -1.55899,7.33193 -2.53866,2.66091 -0.31723,-1.5125 -1.01212,-4.68172 -1.54421,-7.04271 -1.67163,-7.41738 1.7266,-14.52698 14.19943,-29.70729 8.65871,-10.53827 18.73588,-20.98089 19.50472,-20.21206 0.37504,0.37505 -0.96132,3.15677 -2.96969,6.1816 -4.25537,6.40904 -4.56954,8.0126 -1.40159,7.1537 6.83951,-1.85436 15.8766,-2.81886 21.7769,-2.3242 13.38803,1.1224 21.93387,7.91138 27.46698,21.82031 2.72975,6.86194 3.42609,7.92761 3.84258,5.88065 5.20609,-25.58699 12.9378,-54 14.69442,-54 2.36071,0 1.07001,6.67159 -7.06141,36.5 -4.80508,17.62646 -7.90265,31.55611 -7.9498,35.75 -0.0262,2.32872 2.74821,2.22169 6.48033,-0.25 1.65,-1.09275 3.63158,-1.98979 4.40351,-1.99341 0.77193,-0.004 3.73117,-1.10775 6.57608,-2.45361 5.96635,-2.82254 17.79341,-4.55677 30.99418,-4.54478 23.05139,0.021 41.94837,4.35004 76.92199,17.62195 9.29267,3.52642 17.11408,6.19335 17.38091,5.92651 0.26683,-0.26683 -0.29491,-2.12901 -1.24832,-4.13817 -1.34681,-2.83819 -1.82147,-7.14004 -2.12797,-19.28576 -0.56106,-22.23339 -1.00256,-28.44838 -2.7444,-38.63273 -3.24503,-18.97326 -8.7189,-30.56909 -16.64434,-35.25926 -19.23063,-11.38044 -42.39581,-16.6792 -62.32481,-14.25607 -9.57351,1.16402 -21.86791,4.78599 -27.56286,8.1201 -4.68521,2.74296 -4.86529,1.8257 -0.35342,-1.80014 16.83218,-13.52671 44.93064,-15.82259 70.14351,-5.73132 8.27639,3.31257 22.13845,11.52372 22.92629,13.58031 0.18719,0.48865 1.64969,1.56555 3.25,2.3931 3.61464,1.8692 3.71059,1.09435 0.88241,-7.12591 -2.14284,-6.22826 -7.21859,-12.39937 -12.47276,-15.16443 -1.65,-0.86833 -2.45851,-1.76174 -1.79668,-1.98535 0.66182,-0.22362 2.90378,0.74892 4.98213,2.1612 2.07835,1.41227 4.29751,2.56777 4.93146,2.56777 0.65535,0 1.45478,-2.48074 1.85296,-5.75 1.64086,-13.47236 10.51608,-24.25 19.9695,-24.25 3.74312,0 13.23158,4.51665 14.51114,6.90752 1.42336,2.65958 1.03981,2.62801 -4.95051,-0.40752 -9.4421,-4.78468 -18.26983,-2.10295 -22.94126,6.9692 -3.90624,7.58611 -3.52827,15.3642 1.67796,34.5308 4.21728,15.52582 8.06561,36.55796 8.23381,45 0.49652,24.92043 0.32274,23.52258 2.88943,23.24231 1.89591,-0.20702 2.22085,0.0879 1.65254,1.5 -0.38907,0.96673 -0.94744,5.39748 -1.24082,9.84611 -0.69586,10.5516 0.63186,14.41069 7.07098,20.55232 4.62313,4.40952 4.86617,4.85195 2.626,4.78031 -1.35775,-0.0434 -3.14364,-0.32101 -3.96864,-0.61688 z m 16,-13.25616 c -0.825,-0.4589 -2.73853,-1.32326 -4.2523,-1.9208 -3.35425,-1.32404 -6.73889,-6.59835 -6.74396,-10.50918 -0.005,-3.88092 3.17384,-8.77609 7.76545,-11.95808 2.97955,-2.06483 5.33097,-2.72019 11.1271,-3.10123 7.64902,-0.50284 11.26733,0.52365 14.1687,4.01959 1.60262,1.93104 2.04091,1.99002 -8.29068,-1.11566 l -5.72569,-1.72114 -5.42137,2.65243 c -4.00566,1.95979 -5.86854,3.59477 -7.13377,6.26104 -2.16929,4.57145 -1.4017,10.13823 1.73031,12.54871 3.35646,2.58323 11.96585,2.28156 18.77621,-0.6579 5.868,-2.53272 6.5952,-2.53925 5.64024,-0.0507 -1.60305,4.17747 -17.00698,8.13011 -21.64024,5.55287 z m -197.5,-8.04801 c -1.00646,-1.62848 0.43721,-3 3.15781,-3 1.53254,0 3.65116,-1.18975 5.34219,-3 3.24668,-3.47559 4,-3.69674 4,-1.17431 0,2.12444 -3.29831,5.281 -7.29705,6.98347 -3.40948,1.45158 -4.40129,1.48796 -5.20295,0.19084 z m 235.08996,-25.60967 c -7.66659,-7.16289 -8.65274,-8.56466 -4.43857,-6.30931 1.11095,0.59456 2.22558,0.87535 2.47696,0.62397 0.25137,-0.25138 -2.27035,-4.22534 -5.60383,-8.83102 -10.85641,-14.99967 -23.06331,-42.42854 -29.53896,-66.37397 -1.48738,-5.5 -3.16923,-10.57338 -3.73745,-11.27417 -0.56821,-0.70079 -0.81916,-1.48811 -0.55766,-1.74961 0.26149,-0.2615 1.98045,1.39734 3.81991,3.68629 2.49132,3.10012 4.96849,9.0309 9.71091,23.24962 7.33027,21.97761 12.29265,32.65746 22.34395,48.08787 6.47595,9.94164 14.57351,25.23467 13.75816,25.98361 -0.17786,0.16337 -3.8829,-3.0286 -8.23342,-7.09328 z m -56.58996,5.10967 c 0,-0.275 2.63584,-3.13584 5.85741,-6.35741 6.30746,-6.30746 11.72097,-8.87801 20.64259,-9.80194 3.89988,-0.40387 4.74211,-0.25142 3.8279,0.69288 -0.64466,0.66587 -2.44466,1.37377 -4,1.57312 -4.90989,0.62928 -7.76175,1.78188 -14.58177,5.89335 -3.64932,2.2 -7.10045,5.0125 -7.66919,6.25 -0.8759,1.90586 -4.07694,3.27989 -4.07694,1.75 z M 274.24403,298.63437 c 13.41998,-26.51533 13.55123,-26.74295 19.97355,-34.63907 7.49777,-9.21837 15.90667,-15.17613 19.52192,-13.83141 0.88047,0.3275 0.65454,0.74856 -0.69918,1.30304 -9.51669,3.89797 -20.66512,16.8739 -29.99649,34.91366 -7.36673,14.24164 -15.11944,27.88119 -16.01485,28.17533 -0.55623,0.18273 2.69054,-6.98197 7.21505,-15.92155 z m 47.32809,3.99622 c 0.0175,-1.2375 0.6925,-3.12351 1.5,-4.19113 0.80751,-1.06762 1.4682,-2.6881 1.4682,-3.60106 0,-0.91296 1.17306,-3.86445 2.6068,-6.55887 1.43374,-2.69442 4.00468,-7.58315 5.7132,-10.86386 2.82665,-5.42775 3.16271,-5.74294 3.73172,-3.5 0.34393,1.35571 1.03549,2.39199 1.53681,2.30285 0.50131,-0.0891 2.59897,-0.47672 4.66147,-0.86129 2.0625,-0.38457 3.75,-0.47105 3.75,-0.19218 0,0.27888 -2.1375,1.87879 -4.75,3.55537 -5.39895,3.4648 -9.78062,7.85597 -13.61274,13.6423 -3.051,4.60686 -3.32958,6.51787 -0.95017,6.51787 1.31899,0 1.05998,0.65456 -1.18709,3 -3.43436,3.5847 -4.51082,3.76538 -4.4682,0.75 z m 77.4682,-25.82266 c -7.34732,-1.68175 -26.95801,-4.23597 -30.5,-3.97252 -8.16647,0.60743 -11.46036,0.94324 -15.16821,1.54638 -2.88136,0.4687 -3.99696,0.37062 -3.33179,-0.29292 1.27508,-1.27197 9.66324,-3.34696 15.5,-3.83426 2.475,-0.20663 6.12457,-0.6422 8.11016,-0.96794 8.39568,-1.3773 32.12664,3.47521 37.04732,7.57544 l 2.34252,1.95194 -3,-0.0875 c -1.65,-0.0481 -6.6,-0.9115 -11,-1.91863 z M 335.14731,261.2988 c -0.86665,-2.25844 -0.78392,-2.42333 0.89301,-1.77984 0.825,0.31659 1.5,1.20246 1.5,1.96862 0,1.89454 -1.64331,1.76491 -2.39301,-0.18878 z m -6.14811,-6.48474 c -1.07627,-1.74144 0.14952,-2.11024 1.52106,-0.45764 0.78875,0.95039 0.86462,1.52417 0.20152,1.52417 -0.58488,0 -1.36004,-0.47994 -1.72258,-1.06653 z"
         id="path2916" />
      <path
         style="fill:#3a3a3a;fill-opacity:1"
         d="m 454.04032,422.88059 c -0.33992,-0.55 0.057,-1 0.88197,-1 0.825,0 1.77811,0.45 2.11803,1 0.33992,0.55 -0.057,1 -0.88197,1 -0.825,0 -1.77811,-0.45 -2.11803,-1 z m -5,-1 c -0.33992,-0.55 0.057,-1 0.88197,-1 0.825,0 1.77811,0.45 2.11803,1 0.33992,0.55 -0.057,1 -0.88197,1 -0.825,0 -1.77811,-0.45 -2.11803,-1 z m -14.1289,-2.99247 c -7.83208,-1.94745 -13.32158,-4.4938 -7.8711,-3.65109 4.14299,0.64056 17.55186,4.36209 18.2568,5.06703 0.97194,0.97194 -2.91175,0.44245 -10.3857,-1.41594 z m 60.6289,-0.008 c 0.825,-0.53316 2.175,-0.96937 3,-0.96937 1.33333,0 1.33333,0.1077 0,0.96937 -0.825,0.53316 -2.175,0.96937 -3,0.96937 -1.33333,0 -1.33333,-0.1077 0,-0.96937 z m -77,-5 c -1.2421,-0.80271 -1.15614,-0.96937 0.5,-0.96937 1.1,0 2.675,0.43621 3.5,0.96937 1.2421,0.80271 1.15614,0.96937 -0.5,0.96937 -1.1,0 -2.675,-0.43621 -3.5,-0.96937 z m -174.5,-1.55401 c -3.58155,-1.51544 -11.23955,-7.99969 -10.43074,-8.83202 0.42637,-0.43877 10.22883,5.95471 13.84741,9.03172 1.20701,1.02637 -0.79564,0.90931 -3.41667,-0.1997 z m 262.08851,-0.69599 c 0.38861,-0.6875 1.70023,-2.6 2.91474,-4.25 5.24436,-7.1249 9.36805,-17.85128 9.61109,-25 l 0.13599,-4 0.70646,4.35834 c 1.5294,9.43531 -2.00812,20.03915 -9.02664,27.05767 -3.0908,3.09079 -5.66719,4.17911 -4.34164,1.83399 z m -101.58851,-1.75 c -1.2421,-0.80271 -1.15614,-0.96937 0.5,-0.96937 1.1,0 2.675,0.43621 3.5,0.96937 1.2421,0.80271 1.15614,0.96937 -0.5,0.96937 -1.1,0 -2.675,-0.43621 -3.5,-0.96937 z m 72,0.0613 c 0,-0.5837 1.13996,-1.06127 2.53324,-1.06127 3.58426,0 11.22418,-4.19705 16.21676,-8.90881 4.23516,-3.99694 5.25889,-3.92344 3.12781,0.22455 -1.93651,3.7693 -6.08642,7.60099 -9.29276,8.58019 -5.41127,1.65254 -12.58505,2.31682 -12.58505,1.16531 z m -79,-2.0613 c -1.2421,-0.80271 -1.15614,-0.96937 0.5,-0.96937 1.1,0 2.675,0.43621 3.5,0.96937 1.2421,0.80271 1.15614,0.96937 -0.5,0.96937 -1.1,0 -2.675,-0.43621 -3.5,-0.96937 z m -143.09651,-4.25 c -10.03054,-5.1982 -15.85953,-15.41331 -15.89162,-27.84952 -0.0234,-9.07877 10.5704,-19.90048 19.48141,-19.90048 4.67132,0 3.75334,1.44867 -1.80485,2.84824 -5.77167,1.45332 -8.7254,3.93332 -11.64334,9.77593 -5.32697,10.66622 -3.15257,21.46368 5.76945,28.64953 5.42771,4.37151 15.13208,7.7263 22.34981,7.7263 3.04781,0 4.7159,0.38474 4.33565,1 -0.33992,0.55 -4.15216,1 -8.47165,1 -6.9074,0 -8.60917,-0.39156 -14.12486,-3.25 z m 135.59651,2.53693 c -3.76736,-0.90616 -4.22823,-2.54459 -0.5,-1.77752 4.44903,0.91539 7.43275,2.46969 4.5,2.34418 -1.1,-0.0471 -2.9,-0.30207 -4,-0.56666 z m 62.5,0.0245 c -0.825,-0.29186 -8.8341,-3.40336 -17.79799,-6.91444 -17.70587,-6.93524 -37.81394,-13.00845 -56.68896,-17.12167 -15.22029,-3.31679 -36.52678,-3.6825 -48.51305,-0.83268 -12.73519,3.02788 -12.72424,3.02661 -11,1.27052 3.16359,-3.22205 11.21411,-4.87097 26.5,-5.42778 29.47089,-1.07352 46.84624,2.62897 89.5,19.07143 12.19995,4.70292 14.61253,4.67913 11.82943,-0.11665 -2.08689,-3.59609 -3.36587,-17.36933 -1.8721,-20.16047 2.17652,-4.06685 2.98293,-2.11685 2.37654,5.74672 -0.7737,10.03305 0.59123,14.32629 6.49314,20.42356 4.50487,4.65398 4.25914,5.86076 -0.82701,4.06146 z m -137,-4.17802 c 2.23671,-1.4177 9.73502,-2.61533 8.5,-1.35762 -0.55,0.5601 -3.025,1.30862 -5.5,1.66337 -3.00464,0.43067 -4.00155,0.32907 -3,-0.30575 z m 10.5,-2.13341 c 0.33992,-0.55 1.51803,-1 2.61803,-1 1.1,0 1.72189,0.45 1.38197,1 -0.33992,0.55 -1.51803,1 -2.61803,1 -1.1,0 -1.72189,-0.45 -1.38197,-1 z m 11,-1 c 0.33992,-0.55 1.29303,-1 2.11803,-1 0.825,0 1.22189,0.45 0.88197,1 -0.33992,0.55 -1.29303,1 -2.11803,1 -0.825,0 -1.22189,-0.45 -0.88197,-1 z m -41.08203,-7.2862 c 5.89387,-12.02131 6.0214,-12.52395 4.74512,-18.70308 -1.59278,-7.71149 -1.40878,-10.44558 0.42135,-6.26072 0.78171,1.7875 1.87001,3.25 2.41843,3.25 1.31417,0 1.26845,5.03685 -0.0949,10.45104 -0.78707,3.12575 -0.78828,4.90417 -0.004,6.36904 0.95073,1.77646 0.42937,2.60823 -4.14084,6.60614 -2.87568,2.51558 -5.49816,4.57378 -5.82772,4.57378 -0.32956,0 0.78771,-2.82879 2.48282,-6.2862 z m 174.08203,1.2862 c -0.37816,-0.61187 1.24848,-1.01559 4.19098,-1.04016 2.76847,-0.0231 7.14277,-1.04744 10.30902,-2.41405 5.6539,-2.44031 6.73275,-2.54042 5.47676,-0.50819 -2.23322,3.61344 -18.23127,6.78666 -19.97676,3.9624 z m -7.91111,-4.07673 c -1.96469,-2.3349 -2.58889,-4.18663 -2.58889,-7.68011 0,-4.18878 0.4178,-4.99246 4.63884,-8.92327 2.99614,-2.79014 5.55717,-4.31989 7.23213,-4.31989 2.52317,0 2.49683,0.0656 -0.9741,2.42411 -1.96207,1.33326 -4.3779,3.66108 -5.3685,5.17294 -2.5043,3.82204 -2.34444,9.90539 0.33527,12.7578 2.49041,2.65092 2.68823,3.64515 0.72525,3.64515 -0.7761,0 -2.5761,-1.38453 -4,-3.07673 z m 37.41111,-0.48229 c 0,-1.45136 0.43284,-2.2915 1,-1.94098 0.55,0.33992 1,1.49148 1,2.55902 0,1.06754 -0.45,1.94098 -1,1.94098 -0.55,0 -1,-1.15156 -1,-2.55902 z m -189,-2.42761 c 0,-0.82926 2.4353,-2.01337 4.1408,-2.01337 0.53748,0 0.73269,0.39568 0.4338,0.87929 -0.73332,1.18654 -4.5746,2.13882 -4.5746,1.13408 z m -87.73817,-3.51337 c -2.42999,-8.44464 -2.42922,-9.06485 0.0182,-14.57543 1.32506,-2.98351 5.29045,-9.24957 8.81196,-13.92457 6.85217,-9.09661 20.89324,-24.34811 21.68595,-23.5554 0.26365,0.26364 -0.99228,2.77271 -2.79096,5.5757 -3.85707,6.01073 -3.23726,7.27282 2.89501,5.89493 4.39297,-0.98708 7.06537,-0.4957 3.51115,0.6456 -4.64773,1.49244 -14.23112,6.66831 -17.79051,9.60844 -7.79453,6.43842 -13.51406,18.48733 -14.87247,31.33073 -0.3125,2.9546 -0.33472,2.93947 -1.46832,-1 z m 49.73817,2.60841 c 0,-0.60963 1.15962,-1.10841 2.57692,-1.10841 1.52992,0 3.79583,-1.21891 5.57693,-3 3.49672,-3.49673 4.34114,-3.79341 2.84615,-1 -1.91306,3.57458 -11,7.79456 -11,5.10841 z m 211,-16.28587 c -1.55372,-0.65299 -2.01062,-1.23372 -1.20709,-1.53425 1.81154,-0.67754 6.20709,0.5481 6.20709,1.73076 0,1.23006 -1.77127,1.16044 -5,-0.19651 z m -177.56268,-7.82254 c 3.73733,-20.18534 12.30596,-50.02393 12.49172,-43.5 0.12227,4.29411 -10.44187,44.16534 -12.188,46 -0.60597,0.63669 -0.71631,-0.27158 -0.30372,-2.5 z m 202.41607,0.007 c -1.92795,-1.92796 -2.79354,-3.62044 -2.43284,-4.75692 0.36913,-1.16303 -1.44739,-4.44467 -5.33101,-9.63075 -7.13171,-9.52349 -14.33152,-23.15721 -20.42925,-38.6853 -5.20459,-13.25365 -11.97606,-34.95184 -11.16174,-35.76616 1.45742,-1.45742 3.88385,3.84883 9.48617,20.74484 7.38734,22.27946 10.47924,29.12745 20.15495,44.6394 9.27771,14.87391 12.5717,20.55829 13.82819,23.8631 1.3428,3.53185 -0.34151,3.36474 -4.11447,-0.40821 z m -210.76629,-0.79673 c -1.86305,-4.49779 -10.21842,-11.92322 -16.81434,-14.94293 -3.82905,-1.753 -8.02236,-2.74417 -12.94666,-3.06019 -9.35948,-0.60066 -8.48753,-2.20715 1.19797,-2.20715 13.63836,0 22.97653,5.2157 27.88,15.57198 1.47567,3.11667 2.52512,6.14044 2.33211,6.71949 -0.19302,0.57904 -0.9351,-0.3575 -1.64908,-2.0812 z m 145.6629,0.21863 c -0.4125,-0.41923 -0.75,-2.35223 -0.75,-4.29557 0,-2.51549 0.30905,-3.22428 1.07284,-2.46049 0.59007,0.59007 0.92757,2.52307 0.75,4.29557 -0.17756,1.7725 -0.66034,2.87972 -1.07284,2.46049 z m 14.94306,-2.55014 c 1.58154,-1.91746 9.30908,-6.23257 9.29924,-5.19274 -0.004,0.44769 -1.91674,1.93898 -4.25,3.31398 -5.56442,3.27913 -6.48758,3.62263 -5.04924,1.87876 z m -195.19306,-0.87876 c -0.33992,-0.55 0.0835,-1 0.94098,-1 0.85746,0 1.55902,0.45 1.55902,1 0,0.55 -0.42344,1 -0.94098,1 -0.51754,0 -1.2191,-0.45 -1.55902,-1 z m 179.25,-11.57173 c -0.4125,-0.41888 -0.75,-1.9016 -0.75,-3.29494 0,-1.82071 0.30511,-2.22822 1.08466,-1.44867 0.59657,0.59657 0.93407,2.07929 0.75,3.29494 -0.18406,1.21565 -0.67216,1.86755 -1.08466,1.44867 z m -1,-8.00523 c -0.4125,-0.416 -0.75,-1.67137 -0.75,-2.78971 0,-1.47178 0.30207,-1.73126 1.09378,-0.93955 0.60158,0.60158 0.93908,1.85695 0.75,2.78971 -0.18908,0.93276 -0.68128,1.35556 -1.09378,0.93955 z m -1.55878,-7.5487 c -0.57594,-1.44411 -1.56667,-4.59411 -2.20162,-7 -0.63495,-2.40589 -2.71439,-7.18684 -4.62097,-10.62434 -3.25445,-5.86765 -3.34,-6.25 -1.39852,-6.25 1.7521,0 1.96543,-0.42007 1.39654,-2.75 -1.42432,-5.83343 -3.38859,-10.41221 -5.8527,-13.64282 -2.49068,-3.26546 -2.50599,-3.376 -0.53874,-3.89045 1.47191,-0.38491 2.02479,-1.35811 2.02479,-3.56409 0,-1.66904 0.45,-3.31272 1,-3.65264 0.5701,-0.35234 1,0.51564 1,2.01906 0,1.45041 1.81497,9.23947 4.03328,17.30902 4.20814,15.30805 7.41172,31.43885 6.64941,33.48144 -0.24436,0.65476 -0.91552,0.009 -1.49147,-1.43518 z M 322.23349,303.24043 c -0.81298,-0.81299 1.09231,-4.35984 2.34201,-4.35984 0.53065,0 0.96482,0.6199 0.96482,1.37756 0,1.66192 -2.43298,3.85612 -3.30683,2.98228 z m 89.30683,-7.99044 c -7.60081,-3.47619 -21.79625,-7.12399 -32.32056,-8.30542 -10.0754,-1.13103 -20.36524,-0.15823 -31.80763,3.0071 -4.05449,1.1216 -8.27181,2.27913 -9.37181,2.57228 -4.20816,1.12148 6.5176,-4.46798 12.60313,-6.5678 8.23227,-2.84056 22.82659,-3.75314 33.99601,-2.12576 9.45473,1.37755 24.05379,6.63828 30.7732,11.08903 5.42515,3.59347 3.60237,3.74908 -3.87234,0.33057 z m -81.83637,-10.73528 4.14905,-8.36588 4.33756,0.11588 c 2.38565,0.0637 4.32287,0.34088 4.30492,0.61588 -0.018,0.275 -2.65124,2.75 -5.85175,5.5 -3.20051,2.75 -6.67058,6.23621 -7.71126,7.74712 -3.69376,5.36281 -3.31874,2.63425 0.77148,-5.613 z m -50.09276,5.36588 c 0,-0.825 0.64311,-2.625 1.42913,-4 0.82589,-1.44475 1.42913,-1.86685 1.42913,-1 0,0.825 -0.64311,2.625 -1.42913,4 -0.82589,1.44475 -1.42913,1.86685 -1.42913,1 z m 6.00808,-11.41667 c -0.0434,-1.05416 0.19293,-1.64479 0.52522,-1.3125 0.33229,0.33229 0.36782,1.19479 0.0789,1.91667 -0.31923,0.79773 -0.55619,0.56078 -0.60417,-0.60417 z m 111.92105,-2.6209 c -4.675,-1.00873 -11.65,-2.11344 -15.5,-2.4549 -9.63271,-0.85434 -11.7067,-1.36406 -10.89489,-2.6776 1.79823,-2.90959 34.44494,2.1156 37.47671,5.76866 1.52131,1.83306 -0.0584,1.74237 -11.08182,-0.63616 z m 32.02196,-1.71243 c 0.0411,-3.27567 3.72901,-9.73982 7.76609,-13.61238 5.50662,-5.28223 10.75455,-5.90927 18.76477,-2.24207 3.16345,1.44828 5.50182,2.88315 5.19636,3.1886 -0.30545,0.30546 -2.38105,-0.37602 -4.61244,-1.51439 -5.32621,-2.71723 -9.13347,-2.61185 -15.11321,0.41832 -4.24867,2.15296 -5.32857,3.36515 -8.01784,9 -3.23159,6.77119 -4.02078,7.71454 -3.98373,4.76192 z m -140.99314,-0.25 c 0.0173,-1.65845 3.91733,-7.0994 3.94236,-5.5 0.009,0.55 -0.87843,2.35 -1.97118,4 -1.09275,1.65 -1.97978,2.325 -1.97118,1.5 z m 72.47118,-2 c 0.33992,-0.55 1.74303,-1 3.11803,-1 1.41203,0 2.23104,0.43519 1.88197,1 -0.33992,0.55 -1.74303,1 -3.11803,1 -1.41203,0 -2.23104,-0.43519 -1.88197,-1 z m -66.5,-6.88197 c 0,-0.55 0.45,-1.27811 1,-1.61803 0.55,-0.33992 1,-0.16803 1,0.38197 0,0.55 -0.45,1.27811 -1,1.61803 -0.55,0.33992 -1,0.16803 -1,-0.38197 z m 4,-4.93657 c 0,-1.20855 1.8972,-2.61759 2.5907,-1.9241 0.2517,0.2517 -0.22824,1.02686 -1.06653,1.72258 -0.95039,0.78875 -1.52417,0.86461 -1.52417,0.20152 z m 6.5,-6.18146 c 0.33992,-0.55 1.37898,-0.99311 2.30902,-0.98469 1.45727,0.0132 1.48367,0.14929 0.19098,0.98469 -1.95837,1.2656 -3.28218,1.2656 -2.5,0 z"
         id="path2914" />
      <path
         style="fill:#545454;fill-opacity:1"
         d="m 240.41276,409.21687 c -1.24448,-1.5086 -1.16266,-1.55194 0.87756,-0.46482 2.32696,1.23991 2.89993,2.12854 1.37244,2.12854 -0.48265,0 -1.49515,-0.74867 -2.25,-1.66372 z m 237.12756,0.66372 c 0,-0.55 0.45,-1 1,-1 0.55,0 1,0.45 1,1 0,0.55 -0.45,1 -1,1 -0.55,0 -1,-0.45 -1,-1 z m 31.40998,-1.25 c 4.35207,-5.92058 8.97781,-17.28046 9.6301,-23.64956 0.54993,-5.36974 0.72851,-5.85461 0.95772,-2.60044 0.74219,10.53668 -1.15553,17.08046 -7.09778,24.47479 -3.3627,4.18443 -6.39462,5.72661 -3.49004,1.77521 z m -25.40998,0.42093 c 0,-0.47695 1.76705,-1.66401 3.92678,-2.63791 2.15973,-0.97391 5.16892,-3.06725 6.68709,-4.65188 1.51817,-1.58463 3.13768,-2.88114 3.5989,-2.88114 1.79593,0 -2.3397,5.91235 -5.43853,7.775 -3.81649,2.29402 -8.77424,3.6478 -8.77424,2.39593 z m -247.12756,-2.92093 c -1.24387,-1.58606 -1.2085,-1.62143 0.37756,-0.37756 0.9625,0.75485 1.75,1.54235 1.75,1.75 0,0.82304 -0.82119,0.29331 -2.12756,-1.37244 z m 24.12756,-0.18513 c -5.01271,-1.53032 -10.81074,-5.05124 -13.41531,-8.14659 -3.6478,-4.33517 -2.45925,-4.89334 2.0288,-0.95278 5.1981,4.564 11.79847,7.18029 19.63651,7.78364 3.7125,0.28578 6.75,0.90913 6.75,1.38523 0,1.05015 -11.50712,0.99684 -15,-0.0695 z m 183,-3.66081 c -17.36239,-7.27045 -26.13255,-10.45217 -37.1718,-13.48557 -39.6766,-10.90243 -56.20529,-12.13515 -84.82019,-6.32596 -1.75726,0.35674 -1.32438,-0.10847 1.44612,-1.55412 7.02227,-3.66425 28.85002,-5.07568 46.75956,-3.02357 15.9758,1.83053 28.7007,5.41906 56.6688,15.98107 15.38596,5.81044 19.7413,7.09562 21.12268,6.23293 1.42332,-0.88887 2.34538,-0.46237 5.06368,2.3422 2.827,2.91672 3.03275,3.42623 1.37732,3.41066 -1.07039,-0.0101 -5.77117,-1.62 -10.44617,-3.57764 z m 2.49768,-7.40781 c -1.58856,-2.57034 -2.48292,-15.15731 -1.23216,-17.341 1.05915,-1.84915 1.30774,-0.73498 1.75032,7.84475 0.55751,10.80782 0.53601,11.20192 -0.51816,9.49625 z m -149.33511,-2.74625 c 0.61219,-1.5125 1.6788,-4.30925 2.37024,-6.215 1.65893,-4.5723 3.10698,-4.89286 3.742,-0.82838 0.42209,2.70169 -0.0408,3.87728 -2.5763,6.54338 -3.77913,3.97373 -5.01253,4.14814 -3.53594,0.5 z m 174.83743,0.75 c 0,-0.55 2.03945,-1 4.53212,-1 2.49266,0 6.16176,-0.68091 8.15354,-1.51313 1.99178,-0.83222 3.79102,-1.34352 3.99831,-1.13623 0.20729,0.20729 -1.85772,1.3382 -4.58892,2.51312 -5.16331,2.2212 -12.09505,2.87238 -12.09505,1.13624 z m -229.37646,-2.53866 c -0.34295,-0.8937 -0.59502,-2.15061 -0.56015,-2.79313 0.0349,-0.64251 0.49453,-0.0904 1.02148,1.22697 0.52695,1.31735 0.77902,2.57426 0.56015,2.79313 -0.21887,0.21887 -0.67854,-0.33327 -1.02148,-1.22697 z m 221.8185,-0.22665 c -2.23539,-1.55234 -4.44204,-5.80111 -4.44204,-8.5529 0,-3.838 2.47278,-7.81417 6.33644,-10.18885 5.05108,-3.10449 5.23125,-2.99396 1.38664,0.85065 -5.27861,5.27861 -6.07752,12.20578 -1.94981,16.90641 1.53252,1.74523 0.67614,2.37868 -1.33123,0.98469 z m -224.81704,-9.35969 c -1.0816,-5.40801 -0.69694,-8.07656 1.77117,-12.28714 3.63281,-6.19756 12.34872,-12.58786 17.16893,-12.58786 2.90373,0 1.32507,1.75614 -2.0746,2.30783 -1.93023,0.31323 -4.76616,1.46433 -6.30207,2.558 -3.91316,2.78641 -8.36345,12.31092 -8.54281,18.28331 -0.16605,5.52891 -1.1004,6.32696 -2.02062,1.72586 z m -17.61224,-2.82182 c -1.13155,-4.71684 -1.04254,-5.21663 1.9147,-10.75 4.32998,-8.10195 12.27037,-18.4785 20.89309,-27.30318 7.15136,-7.31886 7.26622,-7.38926 4.75557,-2.91499 -2.79775,4.98593 -2.58997,5.90554 1.34055,5.93311 2.19511,0.0154 1.81976,0.43921 -2.4977,2.82022 -7.86166,4.33559 -11.93104,7.80683 -15.88891,13.55348 -3.81578,5.54036 -7.53006,15.74949 -7.53006,20.69727 0,4.55933 -1.6797,3.41455 -2.98724,-2.03591 z m 79.83375,-3.0538 c -0.36171,-5.22005 -0.21519,-5.51916 2.01229,-4.10781 0.98712,0.62545 1.16823,1.98895 0.66211,4.98469 -0.94906,5.6174 -2.25403,5.18953 -2.6744,-0.87688 z m 207.29953,-14.34392 c -1.36471,-1.45267 -1.9572,-2.984 -1.55753,-4.02553 0.84873,-2.21173 2.88379,-0.58244 4.28188,3.42812 1.23675,3.54774 0.25051,3.764 -2.72435,0.59741 z m -66.14604,-3.65546 c 0,-1.1 0.45,-2 1,-2 0.55,0 1,0.9 1,2 0,1.1 -0.45,2 -1,2 -0.55,0 -1,-0.9 -1,-2 z m -150.05383,-4.55576 c -1.8954,-1.95567 -6.54413,-5.10567 -10.33053,-7 -5.68449,-2.84395 -7.99381,-3.44424 -13.25,-3.44424 -4.12591,0 -6.36564,-0.40411 -6.36564,-1.14853 0,-1.62773 15.44261,-0.41601 20.21277,1.58602 4.63662,1.94598 10.42417,6.95974 12.36399,10.71095 1.91128,3.696 1.53684,3.59577 -2.63059,-0.7042 z m 210.84458,-3.19424 c -7.30801,-7.77919 -17.98761,-28.15835 -25.60144,-48.85346 -4.23353,-11.50715 -8.49472,-26.42446 -7.75855,-27.16064 0.86339,-0.86338 3.52727,5.76111 9.47452,23.56103 6.7281,20.13697 9.34515,25.86666 18.59123,40.70307 9.25994,14.85866 10.22342,16.99699 5.29424,11.75 z m -193.26426,-3.25 c 0.47046,-3.91323 5.33486,-22.76737 6.17054,-23.91667 0.16663,-0.22916 0.5104,-0.20923 0.76393,0.0443 0.43883,0.43883 -5.78067,24.90352 -6.92811,27.25206 -0.30105,0.61617 -0.30391,-0.90469 -0.006,-3.37969 z m 131.47351,-3 c 0,-0.55 0.45,-1 1,-1 0.55,0 1,0.45 1,1 0,0.55 -0.45,1 -1,1 -0.55,0 -1,-0.45 -1,-1 z m -3,-18.56554 c 0,-0.86105 -1.54268,-4.90447 -3.42817,-8.98537 -1.8855,-4.08091 -3.0105,-7.67798 -2.5,-7.99348 0.51049,-0.31551 0.92794,-1.55959 0.92767,-2.76463 -6.8e-4,-2.94646 -3.77627,-12.75691 -5.7592,-14.96461 -1.22126,-1.3597 -1.3185,-2.04817 -0.41667,-2.95 0.647,-0.647 1.17637,-2.43637 1.17637,-3.97637 0,-4.13552 1.71968,-3.40208 2.22744,0.95 0.24063,2.0625 2.2663,10.725 4.50148,19.25 4.92471,18.78289 5.71613,23 4.31639,23 -0.57492,0 -1.04531,-0.70449 -1.04531,-1.56554 z m -116,-22.37544 c 0,-0.51754 0.45,-1.2191 1,-1.55902 0.55,-0.33992 1,0.0835 1,0.94098 0,0.85746 -0.45,1.55902 -1,1.55902 -0.55,0 -1,-0.42344 -1,-0.94098 z m 84.5,-9.24185 c -14.73262,-5.82893 -39.94898,-7.86491 -55.43243,-4.47563 -4.08783,0.89482 -7.58611,1.47325 -7.77394,1.28542 -0.63625,-0.63625 11.45148,-4.64763 17.3464,-5.75651 6.82699,-1.2842 21.13267,-0.53945 29.85997,1.5545 3.3,0.79177 9.825,3.23583 14.5,5.43124 9.03202,4.2415 9.79931,5.24458 1.5,1.96098 z m -75.92261,-9.56717 c 0.88233,-2.0625 1.83651,-4.3125 2.12041,-5 0.56794,-1.37536 2.25036,-1.59086 4.79538,-0.61424 1.36274,0.52293 0.89664,1.41026 -2.62642,5 -2.35575,2.40033 -4.64552,4.36424 -5.08839,4.36424 -0.44286,0 -0.0833,-1.6875 0.79902,-3.75 z m 65.92261,-7.85659 c -3.85,-0.78027 -10.78861,-1.75048 -15.41914,-2.15604 -5.78549,-0.50671 -8.56322,-1.17191 -8.87971,-2.1265 -0.95229,-2.87223 22.92283,0.32097 31.98217,4.27748 4.30631,1.8807 1.58041,1.8825 -7.68332,0.005 z m -34.5,-3.39341 c 0,-0.55 0.45,-1 1,-1 0.55,0 1,0.45 1,1 0,0.55 -0.45,1 -1,1 -0.55,0 -1,-0.45 -1,-1 z m 76.6207,-12.19529 c 1.58619,-2.56651 11.3793,-4.98026 11.3793,-2.80471 0,0.55 -1.54844,1 -3.44098,1 -1.89254,0 -3.68553,0.39568 -3.98442,0.87929 -0.29889,0.48361 -1.45107,1.11665 -2.5604,1.40674 -1.21141,0.3168 -1.76796,0.12456 -1.3935,-0.48132 z"
         id="path2912" />
      <path
         style="fill:#272727"
         d="m 448.67298,403.49717 c -2.14214,-1.18768 -2.19605,-1.37828 -0.56672,-2.00351 1.17504,-0.45091 2.50899,0.0174 3.83956,1.34798 2.40825,2.40825 0.55713,2.77902 -3.27284,0.65553 z m 44.8874,-0.14075 c 0.69572,-0.83829 1.47088,-1.31823 1.72258,-1.06653 0.69349,0.6935 -0.71555,2.5907 -1.9241,2.5907 -0.6631,0 -0.58723,-0.57378 0.20152,-1.52417 z m 21.06023,-2.47583 c 1.45781,-3.06103 1.91971,-3.62834 1.91971,-2.3578 0,0.53655 -0.69982,1.84905 -1.55517,2.91667 -1.46637,1.83031 -1.48719,1.7984 -0.36454,-0.55887 z m 4.17004,-14 c 0,-6.57262 0.15693,-7.53631 0.69206,-4.25 0.38064,2.3375 0.38064,6.1625 0,8.5 -0.53513,3.28631 -0.69206,2.32262 -0.69206,-4.25 z m -220.78528,4.5 c 0.40673,-1.1 1.21591,-3.31898 1.79818,-4.93107 l 1.05866,-2.93107 0.8769,2.3705 c 0.71106,1.92217 0.37098,2.85476 -1.79818,4.93106 -2.27892,2.18137 -2.56557,2.26439 -1.93556,0.56058 z m 98.03495,-6.5 c -0.78218,-1.2656 0.54163,-1.2656 2.5,0 1.29269,0.8354 1.26629,0.97149 -0.19098,0.98469 -0.93004,0.008 -1.9691,-0.43469 -2.30902,-0.98469 z m 64.63363,-3 c -0.0567,-1.925 0.33321,-4.175 0.86637,-5 0.7976,-1.2342 0.95112,-1.1456 0.86637,0.5 -0.0566,1.1 -0.44652,3.35 -0.86637,5 l -0.76337,3 -0.103,-3.5 z m -82.13363,-1 c -2.00973,-0.64363 -2.10779,-0.8064 -0.5,-0.83003 1.1,-0.0162 2.9,0.35734 4,0.83003 2.54822,1.09501 -0.0808,1.09501 -3.5,0 z m 66.07895,-0.41667 c -0.0434,-1.05416 0.19292,-1.64479 0.52522,-1.3125 0.33229,0.33229 0.36781,1.19479 0.0789,1.91667 -0.31922,0.79773 -0.55618,0.56078 -0.60416,-0.60417 z m -223.5178,-4.10909 c -0.61775,-3.29285 -0.32033,-4.53906 1.66446,-6.97424 0.44827,-0.55 2.66833,-3.92428 4.93346,-7.49841 4.12223,-6.50441 14.3013,-19.47892 17.11245,-21.81197 1.25999,-1.0457 1.56268,-0.77266 1.93184,1.74257 0.39252,2.67447 -0.13107,3.37431 -5.06885,6.77509 -7.55713,5.2048 -13.22554,13.21227 -16.02266,22.63436 -1.2468,4.19989 -2.63269,7.86222 -3.07974,8.13851 -0.44704,0.27629 -1.10898,-1.07637 -1.47096,-3.00591 z m 18.55036,-1.47424 c -0.0223,-1.375 0.60247,-3.625 1.38849,-5 1.79392,-3.13813 1.79392,-0.65834 0,4 -1.18599,3.07972 -1.35272,3.1998 -1.38849,1 z m 62.96744,-1.41667 c -0.0434,-1.05416 0.19293,-1.64479 0.52522,-1.3125 0.33229,0.33229 0.36782,1.19479 0.0789,1.91667 -0.31923,0.79773 -0.55619,0.56078 -0.60417,-0.60417 z m 205.94111,-14.05916 c -0.78875,-0.95039 -0.86462,-1.52417 -0.20152,-1.52417 1.20855,0 2.61759,1.8972 1.9241,2.5907 -0.2517,0.2517 -1.02686,-0.22824 -1.72258,-1.06653 z M 284.04032,345.22381 c -2.73241,-1.68606 -3.20776,-2.24431 -1.5,-1.7616 3.67599,1.03905 8.90681,4.65803 6.25,4.32412 -0.4125,-0.0518 -2.55,-1.20498 -4.75,-2.56252 z M 435.3828,313.80402 c -1.55041,-2.90754 -2.22841,-5.18491 -1.65002,-5.54237 0.53999,-0.33374 1.36679,-0.21851 1.83732,0.25607 0.79457,0.8014 3.11168,9.55474 2.65116,10.01526 -0.11364,0.11365 -1.39095,-2.01438 -2.83846,-4.72896 z m 40.34155,-21.32207 c -2.16044,-6.29518 -3.1035,-12.61409 -1.20908,-8.10136 1.55581,3.7061 4.25009,13.60829 3.81976,14.03862 -0.23466,0.23466 -1.40946,-2.43711 -2.61068,-5.93726 z m -46.43403,-2.13741 c -2.13517,-2.85523 -2.18245,-3.46395 -0.26905,-3.46395 0.81452,0 1.76856,1.14596 2.12009,2.54657 0.86142,3.43216 0.25448,3.73296 -1.85104,0.91738 z m -35.96428,-2.45387 c -4.89439,-1.47504 -22.54941,-3.00048 -28.98384,-2.50429 -5.68763,0.4386 -5.96073,0.37762 -2.80188,-0.62558 6.30776,-2.00326 32.84927,0.63572 35.77011,3.55656 0.73336,0.73336 -0.61392,0.58908 -3.98439,-0.42669 z m -61.78572,-3.37265 c 0,-1.92061 3.21612,-6.63743 4.52568,-6.63743 2.23574,0 1.78565,1.32754 -1.52568,4.5 -1.65,1.5808 -3,2.54264 -3,2.13743 z m 55.75,-12.29971 c 0.6875,-0.27741 1.8125,-0.27741 2.5,0 0.6875,0.27741 0.125,0.50438 -1.25,0.50438 -1.375,0 -1.9375,-0.22697 -1.25,-0.50438 z m -11.51166,-1.0248 c 0.95609,-0.25029 2.75609,-0.25937 4,-0.0202 1.24391,0.23919 0.46166,0.44398 -1.73834,0.45508 -2.2,0.0111 -3.21775,-0.18461 -2.26166,-0.4349 z"
         id="path2910" />
    </g>
  </g>
</svg>
