<?xml version="1.0" encoding="UTF-8" standalone="no"?>
<!-- Created with Inkscape (http://www.inkscape.org/) -->

<svg
   xmlns:dc="http://purl.org/dc/elements/1.1/"
   xmlns:cc="http://creativecommons.org/ns#"
   xmlns:rdf="http://www.w3.org/1999/02/22-rdf-syntax-ns#"
   xmlns:svg="http://www.w3.org/2000/svg"
   xmlns="http://www.w3.org/2000/svg"
   xmlns:sodipodi="http://sodipodi.sourceforge.net/DTD/sodipodi-0.dtd"
   xmlns:inkscape="http://www.inkscape.org/namespaces/inkscape"
   width="744.09448819"
   height="1052.3622047"
   id="svg2"
   version="1.1"
   inkscape:version="0.47 r22583"
   sodipodi:docname="New document 1">
  <defs
     id="defs4">
    <inkscape:perspective
       sodipodi:type="inkscape:persp3d"
       inkscape:vp_x="0 : 526.18109 : 1"
       inkscape:vp_y="0 : 1000 : 0"
       inkscape:vp_z="744.09448 : 526.18109 : 1"
       inkscape:persp3d-origin="372.04724 : 350.78739 : 1"
       id="perspective10" />
    <inkscape:perspective
       id="perspective2824"
       inkscape:persp3d-origin="0.5 : 0.33333333 : 1"
       inkscape:vp_z="1 : 0.5 : 1"
       inkscape:vp_y="0 : 1000 : 0"
       inkscape:vp_x="0 : 0.5 : 1"
       sodipodi:type="inkscape:persp3d" />
  </defs>
  <sodipodi:namedview
     id="base"
     pagecolor="#ffffff"
     bordercolor="#666666"
     borderopacity="1.0"
     inkscape:pageopacity="0.0"
     inkscape:pageshadow="2"
     inkscape:zoom="1.62"
     inkscape:cx="379.28571"
     inkscape:cy="508.57143"
     inkscape:document-units="px"
     inkscape:current-layer="layer1"
     showgrid="false"
     inkscape:window-width="1680"
     inkscape:window-height="1002"
     inkscape:window-x="0"
     inkscape:window-y="0"
     inkscape:window-maximized="1" />
  <metadata
     id="metadata7">
    <rdf:RDF>
      <cc:Work
         rdf:about="">
        <dc:format>image/svg+xml</dc:format>
        <dc:type
           rdf:resource="http://purl.org/dc/dcmitype/StillImage" />
        <dc:title></dc:title>
      </cc:Work>
    </rdf:RDF>
  </metadata>
  <g
     inkscape:label="Layer 1"
     inkscape:groupmode="layer"
     id="layer1">
    <g
       id="g2830"
       transform="matrix(3.045629,0,0,2.8154671,-686.95423,-921.46441)">
      <path
         style="fill:#a0a0a0"
         d="m 331.7866,541.69158 c -0.43593,-1.36726 0.0611,-2.42113 1.65063,-3.5 5.04846,-3.42654 8.84101,-7.83964 9.83689,-11.44643 1.18849,-4.30435 3.73685,-31.34821 3.02139,-32.06367 -0.25577,-0.25577 -2.65672,0.64454 -5.33545,2.00069 -2.67874,1.35614 -6.03166,2.47261 -7.45095,2.48103 -5.30371,0.0315 -5.67948,1.40231 -1.82004,6.63952 1.9638,2.66484 4.90727,6.11772 6.54105,7.67305 3.58958,3.41726 3.30348,5.23378 -1.59603,10.13329 -7.88556,7.88556 -20.93271,8.2133 -29.11685,0.73142 -4.60758,-4.21221 -6.29528,-8.79233 -3.61837,-9.81956 0.92533,-0.35508 4.58259,-4.49053 8.12724,-9.18987 l 6.44481,-8.54427 -3.02117,-3.11705 c -5.47328,-5.647 -3.01548,-8.11622 4.05551,-4.07436 7.07891,4.04639 12.58947,3.36938 21.6035,-2.65413 2.2991,-1.53634 4.63504,-2.79335 5.19099,-2.79335 1.98022,0 2.28602,-2.149 0.76261,-5.35933 -2.89055,-6.09139 0.87185,-10.24745 7.25666,-8.01592 3.16973,1.10784 3.98503,5.28727 1.67482,8.58556 -2.15724,3.07989 -2.06429,3.31665 2.18475,5.56474 2.0625,1.09123 6,3.19718 8.75,4.67989 6.07112,3.27336 12.87729,3.1209 17.63276,-0.39497 5.2438,-3.87691 8.1136,-0.51894 3.36724,3.94003 -1.375,1.29174 -2.5,2.79263 -2.5,3.33529 0,1.31463 10.75348,15.74495 13.20511,17.72021 2.71833,2.19013 1.51712,6.05928 -3.20585,10.3262 -8.30055,7.49905 -21.93428,6.86015 -29.37568,-1.37659 -3.8866,-4.302 -4.59238,-7.36356 -2.02833,-8.79848 0.87739,-0.49101 3.8049,-3.74777 6.50557,-7.23724 5.13879,-6.63971 5.12269,-7.91144 -0.10082,-7.96385 -1.375,-0.0138 -4.8518,-1.12002 -7.72622,-2.45829 -2.87443,-1.33826 -5.43335,-2.09807 -5.6865,-1.68847 -0.25316,0.40961 -0.0221,5.67145 0.51344,11.69298 1.91108,21.48767 3.65625,26.57109 10.23301,29.8073 3.11001,1.53034 3.72398,2.31686 3.47217,4.44804 l -0.3059,2.58897 -19.25912,0.052 c -18.26062,0.0493 -19.29146,-0.0495 -19.88287,-1.90435 z m 0.64199,-28.1519 c 0,-1.20922 -10.26091,-13.47076 -11.03368,-13.18497 -1.09428,0.4047 -9.96632,11.94881 -9.96632,12.96797 0,0.45387 4.725,0.82521 10.5,0.82521 5.775,0 10.5,-0.27369 10.5,-0.60821 z m 60,0.0867 c 0,-1.15357 -10.30376,-13.54192 -11.03744,-13.27045 -1.09173,0.40393 -9.96256,11.94972 -9.96256,12.96671 0,0.45387 4.725,0.82521 10.5,0.82521 5.775,0 10.5,-0.23466 10.5,-0.52147 z"
         id="path2838" />
      <path
         style="fill:#626262"
         d="m 332.42859,542.22968 c 0,-2.00952 1.28458,-4.08179 2.53026,-4.08179 2.69006,0 7.36012,-5.15633 8.85726,-9.77952 2.54332,-7.85384 4.80686,-34.32235 2.98706,-34.92895 -0.57743,-0.19248 -3.48543,0.78379 -6.46223,2.16949 -2.97679,1.38569 -7.11397,2.52384 -9.19374,2.52921 -2.38311,0.006 -3.98825,0.54887 -4.34083,1.46768 -0.55195,1.43836 6.26957,11.14866 10.50038,14.94708 2.65693,2.38539 2.66183,3.63881 0.0273,6.98805 -7.35497,9.35032 -25.71913,8.66162 -32.43131,-1.21625 -2.26569,-3.33425 -2.32006,-3.67949 -0.7134,-4.52964 0.95658,-0.50616 2.72307,-1.81035 3.92555,-2.89821 2.18413,-1.97594 2.18577,-1.9758 1.63337,0.13657 -0.54035,2.06632 -0.27824,2.11449 11.50466,2.11449 6.86539,0 12.32067,-0.42562 12.66848,-0.9884 0.58714,-0.95001 -9.24023,-14.11942 -11.64565,-15.60605 -0.70649,-0.43663 -2.39492,0.81187 -4.25887,3.14922 -6.0456,7.58102 -7.64292,8.84598 -3.15072,2.49515 2.50933,-3.54755 4.56241,-6.95661 4.56241,-7.57569 0,-0.61908 -1.125,-2.18249 -2.5,-3.47423 -4.21009,-3.95517 -3.08176,-5.25305 2.14894,-2.47186 6.13253,3.26069 11.6165,3.21525 17.93158,-0.14859 2.70571,-1.44125 6.60698,-3.51327 8.66948,-4.6045 2.69724,-1.42706 3.75,-2.63999 3.75,-4.32054 0,-1.28506 -0.45,-2.61459 -1,-2.95451 -1.526,-0.94312 -1.19087,-6.09671 0.48701,-7.48922 0.8488,-0.70444 2.55904,-0.96506 3.98477,-0.60722 3.25834,0.81779 4.30407,4.7634 2.13846,8.06854 -2.48516,3.79283 -1.96596,5.26337 2.63976,7.47668 2.3375,1.1233 6.275,3.2048 8.75,4.62555 5.6777,3.25923 13.85702,3.0878 18.74519,-0.39289 4.23698,-3.01699 5.10363,-1.05145 1.29406,2.9349 -1.67159,1.74916 -3.03925,3.3429 -3.03925,3.54164 0,0.19874 2.49271,3.732 5.53936,7.85169 3.04665,4.11968 5.34734,7.49033 5.11264,7.49033 -0.2347,0 -2.95851,-3.13354 -6.05291,-6.96342 -3.34002,-4.13388 -6.16438,-6.75689 -6.95068,-6.45516 -1.68187,0.6454 -11.64841,13.69635 -11.64841,15.25332 0,1.59061 23.14043,1.62483 24.72868,0.0366 0.83824,-0.83824 1.78561,-0.61193 3.68159,0.87944 l 2.55291,2.00812 -2.26116,3.35533 c -3.5552,5.27557 -9.0369,7.84997 -16.75624,7.86934 -5.49437,0.0138 -7.27312,-0.44058 -11,-2.80992 -2.44518,-1.5545 -5.11663,-4.08987 -5.93656,-5.63415 -1.39784,-2.63275 -1.35161,-2.90018 0.74166,-4.29006 2.99517,-1.98872 12.54421,-14.96293 11.84519,-16.09397 -0.3049,-0.49334 -2.74696,-1.10767 -5.4268,-1.36516 -2.67984,-0.2575 -6.8813,-1.44066 -9.33658,-2.62924 -7.0321,-3.40418 -7.13376,-3.30702 -6.37196,6.08895 2.12921,26.26146 3.77599,31.82867 10.53936,35.62989 2.51505,1.41354 3.99991,2.96677 3.99991,4.18409 0,1.84676 -0.87598,1.93602 -19,1.93602 -10.87175,0 -19,-0.39281 -19,-0.91821 z"
         id="path2836" />
      <path
         style="fill:#2e2e2e"
         d="m 333.84221,541.5355 c 0.13015,-0.88681 1.10283,-2.07204 2.16151,-2.63384 4.26346,-2.26247 7.55787,-6.40953 8.91789,-11.22599 1.62782,-5.76492 3.50698,-21.83366 3.50698,-29.98837 0,-6.47067 -0.35547,-6.60841 -8.12916,-3.14998 -2.95396,1.31419 -8.16844,2.65573 -11.58772,2.98121 -6.02697,0.5737 -6.30809,0.49417 -9.20287,-2.60323 -1.64229,-1.75725 -2.85129,-3.3297 -2.68666,-3.49433 0.16463,-0.16463 1.92897,0.38157 3.92075,1.21379 5.63689,2.35525 10.76114,1.90241 16.82147,-1.48653 2.9503,-1.64982 7.05169,-3.74308 9.11419,-4.65169 2.96642,-1.30683 3.74335,-2.19496 3.7182,-4.25034 -0.0175,-1.42907 -0.6925,-3.47182 -1.5,-4.53944 -1.87503,-2.47901 -1.85044,-2.81213 0.39909,-5.40586 2.41601,-2.78567 3.494,-2.71497 5.12697,0.33627 1.15131,2.15124 1.08502,2.94831 -0.48811,5.86944 -2.33485,4.33556 -1.62439,5.99983 3.68442,8.63081 2.37019,1.17464 6.31728,3.23253 8.77132,4.57309 5.65465,3.08895 12.11652,3.20759 17.55292,0.32229 l 3.98519,-2.1151 -2.48984,2.8651 c -1.36941,1.5758 -3.08151,3.38269 -3.80466,4.01531 -2.05552,1.79816 -12.98985,0.45789 -18.53766,-2.27225 -2.65769,-1.30788 -5.74806,-2.37797 -6.86749,-2.37797 -1.92823,0 -2.00094,0.40781 -1.38191,7.75 2.38952,28.34158 4.02423,34.04076 10.82145,37.72728 2.00515,1.08751 3.85433,2.77501 4.1093,3.75 0.4313,1.64931 -0.81161,1.77272 -17.85433,1.77272 -16.28122,0 -18.29158,-0.17927 -18.08124,-1.61239 z m -14.91362,-14.09607 c -5.61908,-1.03787 -6.85429,-1.61683 -10.52521,-4.93328 -3.78748,-3.42176 -5.13004,-6.31013 -2.97479,-6.39993 7.74766,-0.32282 32.31376,0.0221 32.75151,0.45984 0.32166,0.32167 -0.0368,1.74645 -0.79666,3.1662 -2.52634,4.72051 -12.36937,8.83118 -18.45485,7.70717 z m 60,0 c -5.61908,-1.03787 -6.85429,-1.61683 -10.52521,-4.93328 -3.94837,-3.56711 -5.11885,-6.31753 -2.72479,-6.40276 8.66298,-0.30843 32.06782,0.029 32.50748,0.46865 0.31838,0.31837 -0.0428,1.74047 -0.80263,3.16022 -2.52634,4.72051 -12.36937,8.83118 -18.45485,7.70717 z"
         id="path2834" />
      <path
         style="fill:#181818"
         d="m 337.92859,538.88144 c 7.17375,-4.00573 9.806,-12.48339 11.12711,-35.83692 0.46207,-8.16814 0.32295,-11.80946 -0.46989,-12.29946 -0.61946,-0.38285 -3.93905,0.67617 -7.37687,2.35337 -5.08903,2.48278 -7.50769,3.04946 -13.01546,3.04946 -3.72069,0 -6.76489,-0.34074 -6.76489,-0.75721 0,-0.41646 1.99957,-0.59817 4.4435,-0.4038 5.2207,0.41522 10.04487,-1.00257 15.11225,-4.44138 2.00977,-1.36387 5.36698,-3.06989 7.46046,-3.79115 4.12247,-1.42031 3.81456,-1.52294 17.48379,5.82776 3.98153,2.14109 6.06967,2.62533 10.25136,2.37728 2.88825,-0.17133 5.25075,0.026 5.25,0.4385 -7.5e-4,0.4125 -2.93919,0.75 -6.52988,0.75 -5.26094,0 -7.67793,-0.58022 -12.44847,-2.98839 -8.6029,-4.34273 -9.38947,-3.7106 -8.56852,6.88605 1.22173,15.76975 2.72698,26.5668 4.19668,30.10234 1.65395,3.97878 6.10437,9 7.9769,9 0.68964,0 1.53201,0.45 1.87193,1 0.40307,0.65219 -5.40224,0.99428 -16.69098,0.98355 l -17.30902,-0.0164 4,-2.23355 z m -21.79555,-12.92538 c -2.08755,-0.56562 -5.46255,-2.66634 -7.5,-4.66828 l -3.70445,-3.63989 15.89056,-0.27611 c 8.73981,-0.15186 16.12908,-0.0376 16.42061,0.25395 0.75249,0.75249 -3.8363,5.46778 -6.81117,6.99893 -3.71082,1.90994 -9.99889,2.49557 -14.29555,1.3314 z m 60.55669,0.0254 c -2.69835,-0.60275 -5.60576,-2.28913 -8,-4.64022 l -3.76114,-3.69336 15.89056,-0.27611 c 8.73981,-0.15186 16.12908,-0.0376 16.42061,0.25395 0.75619,0.75619 -3.84754,5.47642 -6.81117,6.98353 -3.75156,1.9078 -8.99619,2.43162 -13.73886,1.37221 z m -26.21104,-48.27321 c -1.74049,-2.09716 -0.88345,-5.06037 1.46359,-5.06037 2.42148,0 3.21747,3.6483 1.16725,5.34984 -1.10015,0.91304 -1.68638,0.84853 -2.63084,-0.28947 z"
         id="path2832" />
    </g>
  </g>
</svg>
