<?xml version="1.0" encoding="UTF-8" standalone="no"?>
<!-- Created with Inkscape (http://www.inkscape.org/) -->

<svg
   xmlns:dc="http://purl.org/dc/elements/1.1/"
   xmlns:cc="http://creativecommons.org/ns#"
   xmlns:rdf="http://www.w3.org/1999/02/22-rdf-syntax-ns#"
   xmlns:svg="http://www.w3.org/2000/svg"
   xmlns="http://www.w3.org/2000/svg"
   xmlns:xlink="http://www.w3.org/1999/xlink"
   xmlns:sodipodi="http://sodipodi.sourceforge.net/DTD/sodipodi-0.dtd"
   xmlns:inkscape="http://www.inkscape.org/namespaces/inkscape"
   width="744.09448819"
   height="1052.3622047"
   id="svg6527"
   version="1.1"
   inkscape:version="0.47 r22583"
   sodipodi:docname="wheat.svg"
   inkscape:export-filename="/home/Craig/Code/google_appengine/inf/assets/wheat.png"
   inkscape:export-xdpi="90"
   inkscape:export-ydpi="90">
  <defs
     id="defs6529">
    <inkscape:perspective
       sodipodi:type="inkscape:persp3d"
       inkscape:vp_x="0 : 526.18109 : 1"
       inkscape:vp_y="0 : 1000 : 0"
       inkscape:vp_z="744.09448 : 526.18109 : 1"
       inkscape:persp3d-origin="372.04724 : 350.78739 : 1"
       id="perspective6535" />
    <inkscape:perspective
       id="perspective6545"
       inkscape:persp3d-origin="0.5 : 0.33333333 : 1"
       inkscape:vp_z="1 : 0.5 : 1"
       inkscape:vp_y="0 : 1000 : 0"
       inkscape:vp_x="0 : 0.5 : 1"
       sodipodi:type="inkscape:persp3d" />
    <inkscape:perspective
       id="perspective6561"
       inkscape:persp3d-origin="0.5 : 0.33333333 : 1"
       inkscape:vp_z="1 : 0.5 : 1"
       inkscape:vp_y="0 : 1000 : 0"
       inkscape:vp_x="0 : 0.5 : 1"
       sodipodi:type="inkscape:persp3d" />
  </defs>
  <sodipodi:namedview
     id="base"
     pagecolor="#ffffff"
     bordercolor="#666666"
     borderopacity="1.0"
     inkscape:pageopacity="0.0"
     inkscape:pageshadow="2"
     inkscape:zoom="1.1575153"
     inkscape:cx="375"
     inkscape:cy="690.95398"
     inkscape:document-units="px"
     inkscape:current-layer="layer1"
     showgrid="false"
     inkscape:window-width="1366"
     inkscape:window-height="717"
     inkscape:window-x="0"
     inkscape:window-y="26"
     inkscape:window-maximized="1" />
  <metadata
     id="metadata6532">
    <rdf:RDF>
      <cc:Work
         rdf:about="">
        <dc:format>image/svg+xml</dc:format>
        <dc:type
           rdf:resource="http://purl.org/dc/dcmitype/StillImage" />
        <dc:title></dc:title>
      </cc:Work>
    </rdf:RDF>
  </metadata>
  <g
     inkscape:label="Layer 1"
     inkscape:groupmode="layer"
     id="layer1">
    <image
       y="123.71931"
       x="89"
       id="image6547"
       height="343"
       width="302"
       xlink:href="file:///home/Craig/Code/google_appengine/inf/assets/inkscape_pasted_image_20111028_161334.png" />
    <path
       style="fill:none;stroke:#000000;stroke-width:1px;stroke-linecap:butt;stroke-linejoin:miter;stroke-opacity:1"
       d="m 347.29561,277.42645 c 88.98371,-66.5218 -69.97747,38.01245 -95.03113,165.00861 m 0,0 c -10.36704,6.04744 -17.27839,2.59176 -18.14231,1.72784 0,0 24.18974,-100.21466 113.17344,-166.73645"
       id="path6551"
       sodipodi:nodetypes="csccs" />
    <path
       style="fill:#000000;fill-opacity:1"
       d="m 535.29105,514.2835 c -1.66199,-2.62069 -3.02181,-5.28203 -3.02181,-5.91408 0,-4.00262 -23.66851,-34.70275 -38.16864,-49.50807 -5.68225,-5.80185 -13.42995,-14.22841 -17.21712,-18.7257 -10.19037,-12.10113 -11.53992,-12.00983 -15.66104,1.05956 -1.25128,3.96822 -3.40346,9.46495 -4.78261,12.21495 -1.37915,2.75 -3.07183,7.25 -3.76152,10 -1.35666,5.40941 -5.5342,16.99677 -7.35302,20.39527 -2.5501,4.7649 -3.211,2.10452 -2.76876,-11.14527 0.48351,-14.48611 2.71498,-30.97403 5.04141,-37.25 0.81551,-2.2 2.29078,-6.925 3.27838,-10.5 2.50027,-9.05067 5.94163,-16.61285 7.90253,-17.36532 2.48976,-0.95541 6.81776,-0.76512 10.31332,0.45344 1.99441,0.69525 6.28041,4.75702 11.87108,11.25 4.81234,5.58903 11.19654,12.75271 14.18712,15.91927 2.99058,3.16657 5.23019,5.96462 4.97692,6.21789 -0.57717,0.57717 -15.19864,-13.83917 -19.72864,-19.45187 -4.48599,-5.55816 -7.8493,-7.12697 -9.73896,-4.54271 -2.79455,3.82178 -1.70644,7.0133 4.85955,14.25349 3.4375,3.79046 10.975,12.20943 16.75,18.70882 5.775,6.4994 12.525,13.90863 15,16.46496 2.475,2.55633 7.2,8.27863 10.5,12.71621 7.2206,9.7097 16.27889,22.30949 17.51834,24.36746 0.71573,1.18838 1.15095,1.23907 2.14067,0.24935 0.98973,-0.98973 0.97382,-2.00457 -0.0782,-4.99164 -2.42435,-6.88332 -17.78125,-32.24886 -24.30064,-40.13822 -4.05041,-4.90156 -5.08327,-7.60044 -1.75649,-4.58975 1.53711,1.39107 2.30298,1.55201 3.18557,0.66942 2.20159,-2.20159 -3.67924,-19.24622 -13.84301,-40.12178 -15.3933,-31.61645 -14.77404,-30.10147 -17.40047,-42.56902 -0.69519,-3.3 -1.91087,-8.475 -2.70152,-11.5 -2.93729,-11.23793 -3.21706,-12.56178 -3.24039,-15.33333 -0.0413,-4.90133 2.36348,-2.41963 4.19113,4.32524 0.94324,3.481 3.34031,8.77701 5.32681,11.76889 13.25005,19.95603 31.61781,50.49722 36.11644,60.05301 2.99449,6.36077 5.76744,11.04114 6.33401,10.69098 1.5759,-0.97396 1.25533,-2.91299 -2.5402,-15.36501 -1.95138,-6.40188 -4.68442,-15.46478 -6.07342,-20.13978 -2.16239,-7.27802 -6.81563,-20.02591 -18.96687,-51.96115 -1.35214,-3.55363 -3.12294,-7.4753 -3.9351,-8.71482 -1.76194,-2.68905 -2.00718,-8.66754 -0.33265,-8.10936 0.6292,0.20973 2.36083,3.50973 3.84806,7.33333 1.48724,3.8236 5.19292,12.577 8.23484,19.452 8.55801,19.34177 11.26488,27.27457 19.27923,56.5 4.22759,15.4165 5.43154,20.41985 6.97871,29.00202 0.69427,3.85112 2.01237,10.37612 2.92911,14.5 0.91674,4.12389 1.98613,9.07298 2.37642,10.99798 0.99704,4.91761 2.49392,4.35267 3.97446,-1.5 3.97951,-15.73135 4.10525,-97.41793 0.20549,-133.5 -3.424,-31.68018 -3.46234,-32.33002 -1.87672,-31.80721 1.55959,0.51424 2.82638,8.21987 4.81803,29.30721 0.6753,7.15 1.65441,17.275 2.1758,22.5 0.52138,5.225 0.8981,27.05 0.83715,48.5 -0.12702,44.70247 -0.22073,41.19614 1.0666,39.90881 1.18132,-1.18132 3.00267,-9.62656 6.01897,-27.90881 4.01844,-24.35633 7.56754,-39.59993 13.6746,-58.73326 1.35758,-4.2533 2.32139,-8.47027 2.14179,-9.37105 -0.1796,-0.90079 -1.90155,-2.14582 -3.82655,-2.76674 l -3.5,-1.12895 -0.54702,-7.70755 c -0.69775,-9.83131 1.0396,-24.40489 2.70989,-22.73164 1.36704,1.36946 3.33713,0.43002 3.33713,-1.59131 0,-0.77686 1.125,-3.9563 2.5,-7.06542 1.375,-3.10912 2.5,-6.86679 2.5,-8.35037 0,-4.25267 3.06301,-12.35964 5.49874,-14.55371 2.45258,-2.20924 6.50126,-11.19893 6.50126,-14.43538 0,-1.40525 0.64558,-2.06462 2.02144,-2.06462 2.05862,0 2.40157,-0.58008 5.45901,-9.23364 0.91986,-2.6035 2.49689,-5.75176 3.50452,-6.99613 l 1.83206,-2.26249 0.71814,3.99613 c 0.39499,2.19787 1.38303,4.75835 2.19565,5.68996 1.30731,1.49873 1.27642,2.22035 -0.2682,6.26487 -1.67026,4.37353 -1.66775,4.65715 0.0582,6.56426 1.68092,1.8574 1.92775,1.8811 3.62198,0.34785 2.45116,-2.21827 3.40582,-7.96484 1.97878,-11.91125 -1.01598,-2.80963 -0.83841,-3.89037 1.41089,-8.58686 3.76345,-7.85801 3.98474,-8.21176 5.44065,-8.69706 1.48551,-0.49517 1.4014,-0.1236 -2.16128,9.54824 -2.07254,5.62649 -2.14355,6.37294 -0.73975,7.77674 1.40379,1.40379 1.9901,1.35943 6.10829,-0.46224 2.50549,-1.1083 5.11999,-2.69533 5.81,-3.52674 1.34241,-1.61755 4.00962,-2.06339 4.00962,-0.67024 0,0.46277 -2.69077,4.85027 -5.9795,9.75 -3.28872,4.89973 -5.98872,9.4711 -6,10.1586 -0.0113,0.6875 0.91226,1.25 2.0523,1.25 1.91824,0 1.84367,0.27798 -1,3.72784 -1.69004,2.05032 -3.0728,4.15824 -3.0728,4.68428 0,0.52604 -0.95151,2.92199 -2.11447,5.32435 -1.16296,2.40235 -1.8202,4.66219 -1.46053,5.02187 0.35968,0.35967 2.21388,-0.18613 4.12045,-1.21289 4.63433,-2.49575 5.33465,-1.44035 1.24678,1.87892 -6.25156,5.07616 -7.79223,6.79248 -7.79223,8.68059 0,1.22837 0.70359,1.89504 2,1.89504 3.04258,0 2.41188,1.92697 -1.94815,5.95213 -5.13939,4.74466 -6.78641,8.78439 -4.32406,10.60585 1.63742,1.21123 1.45253,1.61955 -2.43101,5.36865 -2.71021,2.61639 -4.43575,5.29724 -4.85787,7.5473 -0.36773,1.9602 -2.3977,5.4698 -4.63176,8.00782 -3.51111,3.98883 -4.46515,4.52004 -8.14214,4.53356 -2.29075,0.008 -4.68545,0.34649 -5.32154,0.75125 -2.37899,1.51383 -10.81659,28.72691 -14.9551,48.23344 -0.87516,4.125 -2.44644,11.07663 -3.49173,15.44806 -2.53837,10.61558 -1.09682,11.79969 3.56289,2.92659 7.74983,-14.75735 9.1539,-16.91415 12.43835,-19.10654 6.31516,-4.21541 10.7188,-2.43617 14.08517,5.69096 1.60959,3.8859 3.52288,3.84725 6.85718,-0.13852 4.5309,-5.41617 26.44274,-28.20971 30.65977,-31.89348 2.2,-1.9218 6.62926,-5.50408 9.84279,-7.96062 3.21353,-2.45655 6.8909,-5.31558 8.17192,-6.3534 2.56337,-2.07673 5.48529,-1.5823 5.48529,0.9282 0,0.88221 -3.83333,6.09988 -8.51852,11.59483 -4.68519,5.49495 -9.26346,11.19977 -10.17393,12.67737 -0.91048,1.4776 -3.99368,5.16155 -6.85156,8.18655 -6.97179,7.37949 -21.36365,26.7839 -22.13015,29.83788 -0.38309,1.52637 0.0255,3.43159 1.08425,5.05576 0.93446,1.4335 2.38086,4.12955 3.21423,5.99122 0.83337,1.86167 2.32223,4.56167 3.30858,6 11.93148,17.39888 24.0671,36.65458 24.0671,38.18748 0,1.06021 -0.5625,1.9302 -1.25,1.9333 -1.88032,0.008 -23.88591,-23.3439 -36.41368,-38.64229 l -3.16368,-3.86335 -2.12046,2.06192 c -5.83289,5.67185 -27.93096,51.59895 -32.44819,67.43808 -4.80193,16.83737 -5.04409,17.46672 -6.85399,17.8124 -1.28089,0.24465 -1.75,-0.32159 -1.75,-2.11236 0,-4.37257 7.04284,-25.87171 13.00522,-39.70004 9.71744,-22.53732 11.53774,-26.10377 21.59524,-42.31099 13.70254,-22.08102 25.90234,-38.7625 39.13659,-53.5137 8.67425,-9.66852 10.83709,-13.17531 8.12598,-13.17531 -1.50692,0 -23.29913,22.02243 -33.64458,34 -7.97618,9.23453 -13.10975,16.14165 -21.18202,28.5 -2.1555,3.3 -4.89283,7.25332 -6.08294,8.78516 -2.53377,3.2613 -9.91285,16.96347 -16.94256,31.4605 -7.24964,14.9506 -10.75959,25.994 -14.22077,44.74306 -1.64885,8.93174 -3.49794,9.61836 -7.76835,2.88462 z m 6.39009,-23.00435 c 0.68879,-1.79496 -3.42852,-19.60931 -6.4085,-27.72765 -1.03798,-2.82774 -2.62883,-8.06634 -3.53523,-11.64134 -1.75615,-6.92655 -11.56045,-27.88319 -17.30998,-37 -1.90772,-3.025 -4.43311,-7.57539 -5.61198,-10.11198 -1.17887,-2.53659 -5.15903,-8.22754 -8.8448,-12.64655 -3.68578,-4.41901 -6.70141,-8.77107 -6.70141,-9.67126 0,-2.06698 -4.58483,-11.19559 -6.09026,-12.126 -1.86674,-1.1537 -0.0353,7.28808 3.1942,14.7234 1.59283,3.66719 2.89606,6.89845 2.89606,7.18058 0,0.28213 4.89159,10.55671 10.8702,22.83239 11.97071,24.57907 11.88631,24.37065 16.58544,40.95573 3.48416,12.29696 6.08554,17.86369 8.34787,17.86369 1.05147,0 1.21777,-0.99358 0.71134,-4.25 -0.36352,-2.3375 -0.8834,-5.0375 -1.15529,-6 -0.27188,-0.9625 -0.0344,-1.75 0.52774,-1.75 0.56214,0 1.3169,1.6875 1.67725,3.75 0.36035,2.0625 1.50574,6.41182 2.54532,9.66516 1.03957,3.25333 1.89013,6.95056 1.89013,8.21607 0,3.08685 3.06978,9.36877 4.57822,9.36877 0.66429,0 1.48945,-0.73395 1.83368,-1.63101 z m 6.12465,-13.63046 c 0.79899,-3.74775 8.74635,-19.96249 13.31448,-27.16509 1.71852,-2.70961 3.40808,-6.53461 3.75457,-8.5 0.3465,-1.96539 2.15198,-7.08274 4.01219,-11.37188 1.86022,-4.28914 3.38221,-8.26967 3.38221,-8.84563 0,-0.57595 0.83921,-2.24166 1.86492,-3.70156 1.0257,-1.4599 2.89235,-5.57937 4.14809,-9.15437 1.25575,-3.575 2.838,-7.4 3.51612,-8.5 0.67811,-1.1 1.52004,-3.2375 1.87095,-4.75 0.58148,-2.50626 0.38527,-2.75 -2.21366,-2.75 -2.11749,0 -3.66717,1.01476 -6.01906,3.94136 -1.74205,2.16775 -3.16736,4.40646 -3.16736,4.97492 0,0.56845 -1.53404,3.87471 -3.40899,7.34725 -8.65135,16.02296 -26.21365,68.30196 -24.09601,71.72838 1.01319,1.63938 2.28951,0.27418 3.04155,-3.25338 z m -98.44421,-14.91107 c 0.63949,-1.1949 2.89531,-7.27633 5.01294,-13.5143 2.11763,-6.23796 6.36832,-16.28494 9.44597,-22.32661 3.07765,-6.04168 5.44465,-11.76932 5.26001,-12.72809 -0.18465,-0.95878 -1.6057,-2.35192 -3.15789,-3.09587 -2.55579,-1.22495 -3.04256,-1.14559 -5.15696,0.84078 -3.2765,3.07812 -5.76199,9.38774 -9.87664,25.07269 -3.74531,14.27707 -5.28395,23.75072 -4.28164,26.36271 0.80399,2.09516 1.37339,1.96878 2.75421,-0.61131 z m 167.32699,-21.9888 c -2.60518,-4.58627 -5.79029,-9.77114 -7.07801,-11.52194 -1.28773,-1.7508 -2.34132,-3.59759 -2.34132,-4.10398 0,-0.50638 -1.14172,-2.15263 -2.53715,-3.65833 -2.0642,-2.2273 -2.80985,-2.51132 -4,-1.52358 -0.80457,0.66773 -1.46285,1.79837 -1.46285,2.51253 0,2.28999 20.73836,28.05162 21.75966,27.03031 0.218,-0.218 -1.73515,-4.14875 -4.34033,-8.73501 z m -33.4299,-25.32593 c 0.67888,-0.81799 0.95365,-2.21867 0.61061,-3.11262 -0.50537,-1.31698 -0.90605,-1.39103 -2.11187,-0.39029 -1.60399,1.33119 -2.05171,4.99018 -0.61061,4.99018 0.48265,0 1.43299,-0.66927 2.11187,-1.48727 z m 8.03515,-10.04234 c 0.97068,-1.16961 1.00455,-2.11105 0.14388,-4 -1.45143,-3.18555 -3.95448,-3.17115 -4.75725,0.0274 -1.20581,4.80429 1.78543,7.38008 4.61337,3.97263 z m -0.80016,-68.22039 c 1.85256,-2.11286 4.77558,-7.74418 4.77558,-9.20034 0,-2.12752 -3.29582,-0.95384 -6.6,2.35034 -3.84651,3.84651 -4.706,8.6 -1.55499,8.6 1.01476,0 2.53549,-0.7875 3.37941,-1.75 z m -16.11594,-3 c 0.58244,-1.5125 0.78889,-4.82651 0.45878,-7.36448 -0.58056,-4.46355 -0.52118,-4.59937 1.81545,-4.15269 2.0421,0.39037 2.5222,-0.0234 3.10476,-2.6758 0.37902,-1.72566 0.39225,-5.29613 0.0294,-7.93437 -0.62668,-4.55651 -0.54344,-4.79245 1.6617,-4.70974 2.01371,0.0755 2.49769,-0.65487 3.65112,-5.51012 1.03886,-4.37296 1.07761,-6.53333 0.1772,-9.8772 -0.83503,-3.10108 -1.45412,-3.97837 -2.24756,-3.18493 -1.65511,1.65511 -3.7273,8.24609 -3.74427,11.90933 -0.01,2.09503 -0.50725,3.25 -1.40005,3.25 -2.82282,0 -4.57945,4.50465 -3.92185,10.05706 l 0.62042,5.23846 -2.61678,-0.65677 c -3.4834,-0.87428 -4.64792,1.40202 -4.02482,7.86735 0.61253,6.35568 2.17969,10.4939 3.97409,10.4939 0.77189,0 1.87997,-1.2375 2.46241,-2.75 z m 6.79564,1.36553 c 1.88929,-2.27646 4.08764,-11.98026 2.97126,-13.11553 -1.87614,-1.90788 -8.7211,9.85371 -7.53439,12.94622 0.73933,1.92666 3.034,2.0118 4.56313,0.16931 z m 14.481,-13.70383 c 4.31091,-3.39096 7.3844,-10.9117 4.45927,-10.9117 -2.02856,0 -7.79104,4.99615 -9.43974,8.18439 -1.3166,2.54603 -1.35983,3.22895 -0.24895,3.933 1.90847,1.20954 2.26282,1.12784 5.22942,-1.20569 z m -6.67029,-8.81651 c 3.75641,-5.57413 2.44663,-11.36126 -1.71829,-7.59206 -2.06746,1.87103 -5.18201,9.97806 -4.20767,10.9524 1.28672,1.28672 3.72673,-0.0969 5.92596,-3.36034 z m 15.20762,-10.72373 c 2.40486,-3.05728 2.73112,-6.37146 0.62724,-6.37146 -0.79767,0 -1.86576,-0.74237 -2.37353,-1.6497 -0.5976,-1.06785 -1.6747,-1.45319 -3.05386,-1.09253 -1.65378,0.43247 -2.26736,0.0125 -2.7415,-1.87668 -0.33597,-1.33861 -1.46523,-2.89109 -2.50946,-3.44994 -1.56202,-0.83598 -1.85769,-1.99365 -1.66785,-6.53042 0.27431,-6.55524 -1.57381,-8.74808 -4.45349,-5.28419 -2.47044,2.97162 -2.17209,7.22838 0.75,10.70109 2.84854,3.3853 3.04246,4.8814 0.98514,7.60033 -1.07674,1.423 -1.16596,2.2617 -0.34575,3.25 1.68557,2.03098 5.64108,1.61076 6.89517,-0.73253 0.88373,-1.65126 1.39124,-1.82694 2.53518,-0.87755 1.89523,1.5729 1.7753,2.93518 -0.52156,5.9245 -1.36006,1.7701 -1.61049,2.84008 -0.87276,3.72899 1.30746,1.57539 3.88386,0.30002 6.74703,-3.33991 z m 4.0267,-15.03394 c 2.21201,-2.81211 3.66726,-7.05445 2.73849,-7.98321 -0.3039,-0.30391 -2.45718,1.22406 -4.78506,3.39548 -2.90837,2.7129 -4.03429,4.46459 -3.59893,5.59913 0.93283,2.43092 3.26665,2.01281 5.6455,-1.0114 z m -5.98433,-5.27178 c 2.04934,-3.82922 0.84279,-11.89164 -1.53587,-10.26295 -1.2779,0.87499 -5.42895,7.97564 -5.42895,9.28659 0,0.86662 3.31979,2.67919 5.21482,2.84723 0.39315,0.0349 1.18065,-0.80703 1.75,-1.87087 z m 7.38452,-7.53372 c 0.30982,-0.80738 0.11325,-1.74612 -0.43682,-2.08609 -1.25947,-0.77839 -4.08067,1.47298 -3.34249,2.66738 0.85996,1.39144 3.15793,1.03799 3.77931,-0.58129 z m -10.50745,-6.46449 c 3.80219,-6.76509 2.23346,-16.3487 -1.85053,-11.30519 -1.9181,2.36875 -4.55729,13.51294 -3.57614,15.10049 1.06751,1.72726 3.13582,0.28072 5.42667,-3.7953 z m 17.10772,-2.24381 c 2.17267,-2.33209 3.5604,-5.64704 2.71706,-6.49039 -1.87575,-1.87574 -8.32299,4.51393 -7.28471,7.21966 0.77938,2.03103 2.20863,1.80283 4.56765,-0.72927 z m -67.94961,242.7353 c 0,-0.79254 0.45,-1.7191 1,-2.05902 0.55,-0.33992 1,0.30852 1,1.44098 0,1.13246 -0.45,2.05902 -1,2.05902 -0.55,0 -1,-0.64844 -1,-1.44098 z m 2.45912,-9.80902 c 1.35751,-7.1386 2.85785,-11.76817 4.16552,-12.85344 1.03495,-0.85893 1.37536,-0.84949 1.37536,0.0382 0,2.22372 -2.27155,10.56485 -3.13596,11.51526 -0.47522,0.5225 -0.86404,1.76 -0.86404,2.75 0,0.99 -0.48575,1.8 -1.07946,1.8 -0.67795,0 -0.84958,-1.20882 -0.46142,-3.25 z m 6.54088,-20.48924 c 0,-2.69243 5.7732,-15.26076 7.00996,-15.26076 1.49223,0 1.23253,1.37322 -1.5958,8.43828 -2.81109,7.02198 -5.41416,10.30215 -5.41416,6.82248 z M 483.64333,324.66016 c -3.89535,-4.43878 -7.37409,-10.39852 -7.37409,-12.6332 0,-1.47445 -2.11255,-4.30469 -6,-8.03838 -3.3,-3.16948 -6,-6.0673 -6,-6.4396 0,-0.37231 1.12081,-0.39562 2.49068,-0.0518 5.28814,1.32724 4.09642,-6.2079 -1.48402,-9.38334 -2.35776,-1.34163 -2.99536,-2.39372 -3.00034,-4.9508 -0.005,-2.31222 -1.03285,-4.38337 -3.5717,-7.19357 -3.01453,-3.33672 -3.39704,-4.261 -2.4758,-5.98236 1.18267,-2.20984 0.58322,-5.94517 -1.67186,-10.41788 -1.2806,-2.53993 -1.24809,-3.04454 0.30687,-4.76275 1.70293,-1.88172 1.79373,-1.85654 4.35121,1.20691 3.36341,4.02883 5.8501,3.55567 7.5629,-1.43905 1.04988,-3.06156 1.07203,-4.67637 0.10975,-8 -1.73983,-6.00922 -4.19236,-5.6173 -3.87192,0.61874 0.2285,4.44689 0.11019,4.71036 -1.68406,3.75011 -1.06141,-0.56805 -2.972,-0.92036 -4.24577,-0.78292 -2.12775,0.22958 -2.31594,-0.13144 -2.31594,-4.443 0,-2.58108 -0.5625,-5.25858 -1.25,-5.95 -2.65627,-2.67138 -1.09134,-3.07929 1.66874,-0.43496 1.60531,1.53798 3.40531,2.49561 4,2.12807 1.82434,-1.1275 1.14643,-5.84307 -1.44483,-10.05022 -2.64777,-4.29892 -3.2563,-7.91416 -1.22391,-7.27125 0.6875,0.21748 2.07234,2.89759 3.07742,5.95579 2.77988,8.45842 8.67258,10.67105 8.67258,3.25644 0,-1.89254 0.45,-3.44098 1,-3.44098 0.55,0 1,1.05929 1,2.35398 0,2.97149 4.25038,7.64602 6.95225,7.64602 2.22797,0 2.43967,0.62672 2.1037,6.2279 -0.2646,4.41134 3.45518,10.66097 5.267,8.84914 2.1255,-2.12549 2.61176,-0.9742 2.39608,5.67296 l -0.21903,6.75 2.68173,-0.31262 2.68173,-0.31262 -0.0298,7.59202 c -0.0321,8.19417 1.03209,10.61138 4.51454,10.25403 1.92027,-0.19705 2.15178,0.27015 2.15178,4.34241 0,3.344 0.73476,5.62944 2.75,8.55375 2.19383,3.18347 2.75,5.11786 2.75,9.56466 0,7.17676 -1.89818,11.59022 -6.94634,16.15092 -4.98241,4.50131 -10.47391,5.07033 -13.67957,1.41745 z m 2.91447,-6.57311 c -0.98795,-2.79581 -3.49168,-5.17689 -5.44355,-5.17689 -1.01475,0 -1.84501,0.47235 -1.84501,1.04966 0,1.80043 2.89512,6.74711 4.22896,7.22572 1.89486,0.67991 3.73592,-1.18456 3.0596,-3.09849 z m 8.51144,2.62311 c 1.72281,-1.72281 1.486,-4.31907 -0.80327,-8.8064 -2.14355,-4.20172 -4.97406,-6.32326 -7.26397,-5.44455 -0.87304,0.33502 -3.22073,-1.57512 -6.14976,-5.00358 -4.61401,-5.40075 -6.80127,-6.61936 -8.10236,-4.51415 -1.44379,2.33611 8.56929,12.96868 12.21309,12.96868 1.22637,0 3.58185,4.28072 5.64009,10.25 0.69878,2.02658 2.73842,2.27776 4.46618,0.55 z m 6.16482,-8.73426 c 1.59169,-2.97411 1.23321,-6.57655 -0.84126,-8.45392 -1.71835,-1.55509 -1.92899,-1.56125 -2.5,-0.0732 -0.82845,2.1589 -0.79855,8.95306 0.0431,9.79471 1.14947,1.14947 2.22601,0.73572 3.29815,-1.26759 z m -6.95812,-10.57381 c 1.83288,-2.20848 0.67533,-10.25434 -1.83667,-12.76635 l -2.0504,-2.0504 -0.68602,2.73332 c -0.68356,2.72353 0.0402,10.93106 1.11764,12.67443 0.82397,1.33321 2.02963,1.127 3.45545,-0.591 z m -7.62362,-1.04783 c 1.43491,-3.73932 -4.28877,-11.4441 -8.50152,-11.4441 -0.92039,0 -3.44704,-2.10124 -5.61478,-4.66943 -2.792,-3.30776 -4.42622,-4.48337 -5.60406,-4.03138 -0.9145,0.35092 -1.66272,1.03562 -1.66272,1.52154 0,2.38078 5.03329,7.79224 9.45636,10.16685 2.726,1.46351 5.42599,3.75459 6,5.0913 2.22466,5.18068 4.69238,6.58186 5.92672,3.36522 z m 1.00993,-15.02589 c 2.0707,-5.39616 -0.97635,-14.83882 -3.98311,-12.34344 -1.49626,1.24179 -1.81618,5.64385 -0.7849,10.80023 0.67891,3.39453 3.68432,4.36726 4.76801,1.54321 z m -7.39675,-1.66821 c -0.007,-2.21422 -4.01612,-7.90988 -5.27618,-7.49503 -2.37188,0.78089 -1.89404,4.46303 0.86035,6.62964 3.06092,2.40771 4.42124,2.6743 4.41583,0.86539 z m -9.78866,-11.02903 c -0.16082,-1.52846 0.40168,-3.47311 1.25,-4.32143 2.02263,-2.02263 1.9467,-3.67868 -0.29565,-6.44787 -2.032,-2.50941 -4.16195,-1.9427 -4.16195,1.10735 0,2.36396 -0.37781,2.39476 -3.58653,0.29233 -3.51929,-2.30593 -5.05918,-0.64239 -3.51247,3.79451 2.61914,7.51327 10.98676,12.03954 10.3066,5.57511 z m 10.2924,-7.62568 c 0,-5.03015 -0.37569,-6.61158 -1.77847,-7.4863 -2.57726,-1.60709 -3.50172,0.46293 -2.9935,6.70289 0.56407,6.92567 0.95469,7.89587 3.01895,7.49833 1.45215,-0.27966 1.75302,-1.43215 1.75302,-6.71492 z m -6.10699,-10.67708 c 1.78152,-4.64255 -0.57781,-12.6581 -3.24131,-11.01197 -1.21586,0.75145 -1.62402,10.78811 -0.48503,11.92709 1.18207,1.18208 3.10255,0.71044 3.72634,-0.91512 z m 53.35697,41.50168 c -2.04835,-1.19306 -4.74998,-6.06173 -4.74998,-8.56007 0,-1.33583 0.73719,-0.98548 3.17673,1.50974 4.41531,4.51609 6.69302,5.63343 7.45199,3.6556 1.54587,-4.02848 -4.84735,-12.16322 -8.82336,-11.22683 -1.98159,0.46668 -2.64217,-0.16888 -4.70361,-4.52549 -1.95617,-4.13414 -2.18034,-5.41734 -1.21612,-6.96131 1.30552,-2.09047 1.1018,-2.61062 -3.17675,-8.11112 -2.84311,-3.65511 -2.88426,-3.85354 -1.08219,-5.2182 2.61357,-1.97919 3.28927,-1.83345 4.34243,0.93656 0.88658,2.3319 3.59161,4.27775 9.1807,6.6041 1.4574,0.60661 2.86884,1.86213 3.13654,2.79003 0.2677,0.92791 0.81093,2.4746 1.20718,3.4371 1.16809,2.83739 -1.25521,2.04829 -4.3514,-1.41694 -1.8935,-2.1192 -3.37761,-2.95668 -4.4859,-2.53139 -2.35201,0.90255 -2.05356,3.64935 0.86284,7.94122 4.00122,5.88832 8.48092,7.31348 8.48092,2.69809 0,-1.06754 0.43417,-1.94098 0.96482,-1.94098 1.83553,0 3.12364,-4.01156 2.44672,-7.61984 -0.52901,-2.81987 -1.37662,-3.88545 -3.94391,-4.95813 -1.79855,-0.75148 -4.25475,-2.95956 -5.45824,-4.90683 -2.61107,-4.22481 -5.15641,-5.76739 -8.23963,-4.99355 -1.81509,0.45556 -2.92389,-0.27906 -5.52052,-3.65758 -3.46786,-4.51208 -3.75755,-5.51164 -2.27638,-7.85439 0.63913,-1.01092 0.43987,-2.25702 -0.61945,-3.87375 -1.14632,-1.7495 -1.30125,-2.955 -0.5825,-4.53247 0.53854,-1.18198 0.75315,-4.50129 0.4769,-7.37625 -0.56692,-5.90004 0.18907,-6.45143 3.39641,-2.47721 1.98962,2.46533 2.37987,2.59286 3.76993,1.23192 1.69263,-1.65715 2.25112,-7.16889 1.08744,-10.73192 -1.4371,-4.40017 1.28082,-2.17797 6.11535,5 3.74974,5.56733 4.99911,8.41046 5.38306,12.25 0.41667,4.16667 0.83333,5 2.5,5 1.73751,0 1.99055,-0.64266 1.92797,-4.89668 -0.0562,-3.8207 -0.56737,-5.29778 -2.32626,-6.72204 -1.57669,-1.27673 -2.06077,-2.4349 -1.61058,-3.85333 1.27497,-4.01709 5.50887,-1.57918 5.50887,3.17205 0,2.343 0.421,2.8 2.57946,2.8 2.32933,0 2.51735,0.28276 1.93895,2.91616 -0.96706,4.403 0.43063,10.25775 2.58319,10.82066 1.53656,0.40182 1.7368,1.16304 1.24665,4.73909 -0.57001,4.15863 0.36947,5.95209 3.15175,6.01668 0.92785,0.0215 1.06551,4.40318 0.38514,12.25917 -0.15489,1.78847 0.25168,3.78506 0.9035,4.43688 0.91348,0.91348 1.43974,0.45467 2.29606,-2.00176 0.61102,-1.75279 1.51119,-3.18688 2.00037,-3.18688 1.73673,0 -1.25641,28.2966 -3.24682,30.6949 -0.59573,0.7178 -2.04054,1.32105 -3.21069,1.34054 -1.17016,0.0195 -3.25256,0.67854 -4.62756,1.46456 -2.89296,1.65376 -11.68671,1.91288 -14.25002,0.41989 z m 13.42128,-5.57488 c 1.96882,-1.78176 2.45979,-5.83696 0.82874,-6.84501 -1.70992,-1.05679 -1.09966,-4.59871 1.09911,-6.37917 2.93514,-2.37673 3.92511,-10.79057 1.38433,-11.76556 -2.62737,-1.00822 -4.48344,2.2357 -4.48344,7.83586 0,4.05161 -0.2981,4.80887 -1.89301,4.80887 -1.04116,0 -2.16616,0.7118 -2.5,1.58179 -1.16346,3.03193 -0.59522,8.77374 1.048,10.58947 2.02377,2.23624 2.22854,2.24412 4.51627,0.17375 z m 8.23804,-6.62508 c 0.97522,-4.96679 -0.30359,-8.08146 -2.90775,-7.08215 -1.89109,0.72568 -2.91206,7.72666 -1.5091,10.34812 1.70499,3.1858 3.3955,1.93578 4.41685,-3.26597 z m -8.37726,-22.96993 c 2.14613,-3.48287 2.24632,-6.83702 0.22411,-7.50295 -1.30234,-0.42888 -2.51808,2.03097 -3.7082,7.50295 -0.46047,2.11713 -0.32547,3.25 0.38729,3.25 0.60179,0 1.99534,-1.4625 3.0968,-3.25 z m -7.55924,-5.70598 c 0.32495,-0.52579 -0.09,-2.58542 -0.92212,-4.57696 -1.05961,-2.53601 -2.04295,-3.51995 -3.28181,-3.2838 -2.13221,0.40643 -2.80914,3.93872 -1.29648,6.76515 1.13368,2.11831 4.45899,2.78066 5.50041,1.09561 z m 4.95821,-11.38896 c 0.65274,-2.58928 0.58488,-4.03917 -0.22705,-4.85111 -0.87741,-0.8774 -1.52473,-0.28048 -2.67108,2.4631 -1.56561,3.74706 -1.12964,7.09301 0.84033,6.44927 0.61973,-0.20252 1.54574,-2.03009 2.0578,-4.06126 z m -17.87214,1.90261 c 1.91558,-1.42334 1.91393,-1.46992 -0.12559,-3.53894 -2.31661,-2.35012 -5.43328,-1.84059 -5.43328,0.88826 0,1.65289 1.79379,4.09301 3.00887,4.09301 0.33488,0 1.48238,-0.64905 2.55,-1.44233 z m 7.74182,-4.00122 c 2.77442,-2.77441 -0.34262,-9.52181 -3.78796,-8.19971 -1.87874,0.72094 -2.09871,8.24014 -0.26273,8.98098 2.04721,0.82607 2.53802,0.7314 4.05069,-0.78127 z m -9.30069,-6.48502 c 0,-1.35663 -2.93707,-4.07143 -4.40476,-4.07143 -2.2514,0 -2.63696,1.29642 -0.94243,3.16885 1.72545,1.9066 5.34719,2.51794 5.34719,0.90258 z m 5,-9.07143 c 0,-0.55 -0.45,-1 -1,-1 -0.55,0 -1,0.45 -1,1 0,0.55 0.45,1 1,1 0.55,0 1,-0.45 1,-1 z m 98.99086,41.51101 c 0.67967,-0.81894 1.64211,-1.23785 2.13876,-0.9309 1.27647,0.7889 0.0558,2.41989 -1.81108,2.41989 -1.27119,0 -1.33244,-0.27832 -0.32768,-1.48899 z m -21.8369,-27.48053 c 0.19032,-1.3056 0.90854,-2.55907 1.59604,-2.78549 1.79918,-0.59252 1.54099,2.26862 -0.34604,3.83472 -1.39347,1.15647 -1.55212,1.0233 -1.25,-1.04923 z"
       id="path6575" />
  </g>
</svg>
